<svg id="docker_official_logo_icon_169250" xmlns="http://www.w3.org/2000/svg" width="98.335" height="55.834" viewBox="0 0 98.335 55.834">
  <path id="Path_9107" data-name="Path 9107" d="M76.066,17.632h8.816v9.012h4.457a19.322,19.322,0,0,0,6.125-1.027,15.47,15.47,0,0,0,2.978-1.349,11.049,11.049,0,0,1-2.067-5.7c-.254-2.751.3-6.331,2.162-8.484l.927-1.072,1.1.888c2.776,2.233,5.118,5.359,5.531,8.913a13.473,13.473,0,0,1,10.228.951l1.211.7-.637,1.244c-2.494,4.874-7.712,6.383-12.813,6.116-7.633,19.007-24.25,28.011-44.4,28.011-10.41,0-19.959-3.891-25.4-13.127l-.089-.154-.792-1.612a25.569,25.569,0,0,1-2.035-12.968L31.5,26.64H39.04V17.632h8.815V8.816H65.487V0H76.066V17.632" transform="translate(-19.204)" fill="#364548" fill-rule="evenodd"/>
  <path id="Path_9108" data-name="Path 9108" d="M106.969,38.576c.591-4.594-2.847-8.2-4.979-9.916-2.457,2.841-2.839,10.285,1.016,13.42-2.151,1.911-6.684,3.643-11.326,3.643h-56.5a23.809,23.809,0,0,0,2.342,13.126l.643,1.176a21.8,21.8,0,0,0,1.332,2q3.484.224,6.424.157h0A31.5,31.5,0,0,0,55.3,60.815a.679.679,0,0,1,.445,1.282c-.317.11-.647.213-.988.31h0a29.224,29.224,0,0,1-6.479,1.056c.154,0-.16.023-.161.023-.089.006-.2.019-.288.023-1.021.058-2.123.069-3.249.069-1.232,0-2.445-.023-3.8-.093l-.039.023c4.7,5.291,12.068,8.465,21.3,8.465,19.527,0,36.09-8.656,43.424-28.089,5.2.534,10.2-.793,12.479-5.234-3.623-2.091-8.283-1.424-10.966-.076" transform="translate(-21.545 -17.61)" fill="#616b76" fill-rule="evenodd"/>
  <path id="Path_9109" data-name="Path 9109" d="M112.469,38.576c.591-4.594-2.847-8.2-4.979-9.916-2.457,2.841-2.839,10.285,1.016,13.42-2.151,1.911-6.684,3.643-11.326,3.643H44.027c-.231,7.42,2.523,13.053,7.395,16.458h0A31.5,31.5,0,0,0,60.8,60.815.679.679,0,0,1,61.24,62.1c-.317.11-.647.213-.988.31h0a30.727,30.727,0,0,1-6.652,1.1l-.064-.06c6.646,3.409,16.281,3.393,27.329-.847,12.387-4.759,23.915-13.826,31.961-24.2q-.178.08-.354.168" transform="translate(-27.044 -17.61)" fill="#76808a" fill-rule="evenodd"/>
  <path id="Path_9110" data-name="Path 9110" d="M35.645,88.181a22.487,22.487,0,0,0,2.236,7.239l.643,1.176a21.757,21.757,0,0,0,1.332,2q3.485.224,6.425.157a31.494,31.494,0,0,0,9.373-1.365.679.679,0,0,1,.445,1.282c-.317.11-.647.213-.988.31h0a30.757,30.757,0,0,1-6.641,1.08c-.089.005-.244.007-.334.012-1.02.057-2.111.093-3.238.093q-1.925,0-3.848-.093c4.7,5.292,12.114,8.472,21.34,8.472,16.717,0,31.261-6.345,39.7-20.365H35.645" transform="translate(-21.902 -54.182)" fill="#55606a" fill-rule="evenodd"/>
  <path id="Path_9112" data-name="Path 9112" d="M55.26,35.493H62.9v7.64H55.26Zm.636.637h.6v6.363h-.607V36.13Zm1.133,0h.627v6.363H57.03Zm1.157,0h.627v6.363h-.627Zm1.158,0h.627v6.363h-.627Zm1.158,0h.627v6.363H60.5V36.13Zm1.157,0h.6v6.363h-.6V36.13Zm2.415-9.453h7.641v7.64H64.075Zm.637.637h.6v6.367h-.6V27.314Zm1.133,0h.627v6.367h-.626V27.314Zm1.157,0h.627v6.367H67V27.314Zm1.158,0h.627v6.367h-.627V27.314Zm1.158,0h.627v6.367h-.627V27.314Zm1.157,0h.6v6.367h-.6V27.314Z" transform="translate(-33.955 -16.392)" fill="#697179" fill-rule="evenodd"/>
  <path id="Path_9113" data-name="Path 9113" d="M78.126,49.543h7.641v7.64H78.126Zm.637.637h.6v6.363h-.6Zm1.134,0h.627v6.363H79.9V50.18Zm1.157,0h.627v6.363h-.627Zm1.158,0h.627v6.363h-.627Zm1.158,0H84v6.363h-.627Zm1.157,0h.6v6.363h-.6Z" transform="translate(-48.005 -30.442)" fill="#697179" fill-rule="evenodd"/>
  <path id="Path_9114" data-name="Path 9114" d="M100.993,49.543h7.641v7.64h-7.641Zm.636.637h.6v6.363h-.6Zm1.133,0h.627v6.363h-.627Zm1.158,0h.627v6.363h-.627Zm1.158,0h.627v6.363h-.623V50.18Zm1.157,0h.628v6.363h-.628Zm1.158,0h.6v6.363h-.6Z" transform="translate(-62.056 -30.442)" fill="#697179" fill-rule="evenodd"/>
  <path id="Path_9115" data-name="Path 9115" d="M100.993,26.677h7.641v7.64h-7.641Zm.636.637h.6v6.367h-.6V27.314Zm1.133,0h.627v6.367h-.627V27.314Zm1.158,0h.627v6.367h-.627V27.314Zm1.158,0h.627v6.367h-.623V27.314Zm1.157,0h.628v6.367h-.628V27.314Zm1.158,0h.6v6.367h-.6V27.314Zm2.415,8.179h7.641v7.64h-7.64v-7.64Zm.637.637h.6v6.363h-.606V36.13Zm1.133,0h.627v6.363h-.627Zm1.157,0h.627v6.363h-.627Zm1.158,0h.627v6.363h-.627Zm1.158,0h.627v6.363h-.627Zm1.158,0h.6v6.363h-.6Z" transform="translate(-62.056 -16.392)" fill="#434e59" fill-rule="evenodd"/>
  <path id="Path_9116" data-name="Path 9116" d="M123.86,26.677H131.5v7.64H123.86Zm.637.637h.6v6.367h-.6V27.314Zm1.133,0h.627v6.367h-.627V27.314Zm1.157,0h.627v6.367h-.627V27.314Zm1.158,0h.627v6.367h-.627V27.314Zm1.158,0h.627v6.367H129.1V27.314Zm1.158,0h.6v6.367h-.6V27.314Z" transform="translate(-76.107 -16.392)" fill="#697179" fill-rule="evenodd"/>
  <path id="Path_9117" data-name="Path 9117" d="M123.86,3.8H131.5v7.641H123.86Zm.637.636h.6V10.8h-.6V4.44Zm1.133,0h.627V10.8h-.627V4.44Zm1.157,0h.627V10.8h-.627V4.44Zm1.158,0h.627V10.8h-.627V4.44Zm1.158,0h.627V10.8H129.1V4.44Zm1.158,0h.6V10.8h-.6V4.44Z" transform="translate(-76.107 -2.335)" fill="#697179" fill-rule="evenodd"/>
  <path id="Path_9118" data-name="Path 9118" d="M146.725,49.543h7.641v7.64h-7.641Zm.636.637h.6v6.363h-.6V50.18Zm1.133,0h.627v6.363H148.5V50.18Zm1.158,0h.627v6.363h-.627Zm1.157,0h.627v6.363h-.627Zm1.158,0h.627v6.363h-.627Zm1.157,0h.6v6.363h-.6Z" transform="translate(-90.156 -30.442)" fill="#697179" fill-rule="evenodd" opacity="0.8"/>
  <path id="Path_9119" data-name="Path 9119" d="M93.344,101.492a2.108,2.108,0,1,1-2.108,2.108,2.108,2.108,0,0,1,2.108-2.108" transform="translate(-56.06 -62.362)" fill="#b6bcc8" fill-rule="evenodd"/>
  <path id="Path_9120" data-name="Path 9120" d="M37.283,88.639a1.5,1.5,0,0,1,.546.1.616.616,0,1,0,.848.829,1.509,1.509,0,1,1-1.395-.931M0,83.673H98.054C95.919,83.132,91.3,82.4,92.061,79.6c-3.882,4.492-13.245,3.152-15.607.937C73.822,84.355,58.5,82.9,57.436,79.931c-3.3,3.871-13.52,3.871-16.818,0-1.069,2.969-16.386,4.424-19.018.607C19.238,82.754,9.88,84.094,5.994,79.6c.762,2.8-3.858,3.53-5.994,4.071" transform="translate(0 -48.912)" fill="#ebedef" fill-rule="evenodd"/>
  <path id="Path_9121" data-name="Path 9121" d="M73.018,125.727c-5.22-2.477-8.085-5.845-9.679-9.521a32.338,32.338,0,0,1-6.978,1.059q-1.53.086-3.219.086-1.948,0-4.1-.115c4.787,4.781,10.676,8.468,21.581,8.535q1.208,0,2.4-.045" transform="translate(-30.132 -71.404)" fill="#616b76" fill-rule="evenodd"/>
  <path id="Path_9122" data-name="Path 9122" d="M76.948,119.587a18.1,18.1,0,0,1-1.938-3.393,32.316,32.316,0,0,1-6.979,1.06,22.215,22.215,0,0,0,8.918,2.333" transform="translate(-41.802 -71.396)" fill="#697179" fill-rule="evenodd"/>
</svg>
