<svg xmlns="http://www.w3.org/2000/svg" width="370.41" height="87.195" viewBox="0 0 370.41 87.195">
  <g id="Group_1992" data-name="Group 1992" transform="translate(-517 -378.581)">
    <g id="Group_1988" data-name="Group 1988" transform="translate(654.412 404.243)">
      <rect id="Rectangle_1059" data-name="Rectangle 1059" width="10.973" height="33.88" transform="matrix(0.966, 0.259, -0.259, 0.966, 12.469, 0)" fill="#dc7759"/>
      <rect id="Rectangle_1060" data-name="Rectangle 1060" width="5.647" height="33.88" transform="matrix(-0.259, 0.966, -0.966, -0.259, 34.187, 12.624)" fill="#dc7759"/>
    </g>
    <rect id="Rectangle_1063" data-name="Rectangle 1063" width="10.974" height="33.88" transform="translate(863.2 406.65)" fill="#6f729d"/>
    <rect id="Rectangle_1062" data-name="Rectangle 1062" width="5.647" height="33.88" transform="translate(887.41 412.532) rotate(90)" fill="#6f729d"/>
    <path id="Polygon_7" data-name="Polygon 7" d="M20.538,0,41.076,33.981H0Z" transform="translate(802.447 406.642)" fill="#f3c978"/>
    <rect id="Rectangle_1067" data-name="Rectangle 1067" width="34.355" height="33.981" transform="translate(517 406.642)" fill="#f3c978"/>
    <g id="Group_1983" data-name="Group 1983" transform="translate(700.026 416.896) rotate(-30)">
      <path id="Path_9231" data-name="Path 9231" d="M0,10.922a8.706,8.706,0,0,1,1.093-4.18A11.27,11.27,0,0,1,4.206,3.2,15.278,15.278,0,0,1,8.865.831a18.58,18.58,0,0,1,10.991,0A15.278,15.278,0,0,1,24.515,3.2a11.27,11.27,0,0,1,3.113,3.543,8.706,8.706,0,0,1,1.093,4.18H0Z" transform="translate(28.722 30.07) rotate(180)" fill="#6f729d"/>
      <rect id="Rectangle_1066" data-name="Rectangle 1066" width="28.724" height="19.594" transform="translate(0 0)" fill="#6f729d"/>
    </g>
    <path id="Path_9231-2" data-name="Path 9231" d="M0,13.948A14.952,14.952,0,0,1,.981,8.611,14.077,14.077,0,0,1,3.774,4.085,12.871,12.871,0,0,1,7.955,1.062a11.984,11.984,0,0,1,9.863,0A12.871,12.871,0,0,1,22,4.085a14.076,14.076,0,0,1,2.793,4.525,14.951,14.951,0,0,1,.981,5.338H0Z" transform="matrix(0.259, 0.966, -0.966, 0.259, 631.916, 400.028)" fill="#6f729d"/>
    <rect id="Rectangle_1066-2" data-name="Rectangle 1066" width="25.776" height="14.484" transform="matrix(-0.259, -0.966, 0.966, -0.259, 611.807, 432.13)" fill="#6f729d"/>
    <rect id="Rectangle_1061" data-name="Rectangle 1061" width="33.65" height="33.88" transform="translate(764.274 399.119) rotate(30)" fill="#7fb3a6"/>
    <path id="Path_9229" data-name="Path 9229" d="M0,0H29.555L0,25.463Z" transform="translate(745.46 453.044) rotate(-60)" fill="#1a191e"/>
    <path id="Path_9232" data-name="Path 9232" d="M0,0H34.615L0,29.823Z" transform="matrix(-0.259, -0.966, 0.966, -0.259, 614.094, 440.657)" fill="#6f729d"/>
    <path id="Path_9230" data-name="Path 9230" d="M0,0H29.555L0,25.463Z" transform="translate(795.136 391.312) rotate(120)" fill="#1a191e"/>
    <rect id="Rectangle_1065" data-name="Rectangle 1065" width="26.351" height="24.469" transform="translate(534.987 429.642)" fill="#1a191e"/>
    <rect id="Rectangle_1068" data-name="Rectangle 1068" width="25.754" height="3.524" transform="translate(534.987 414.733)" fill="#1a191e"/>
    <rect id="WhatsApp_Image_2022-07-22_at_9.44.35_PM" data-name="WhatsApp Image 2022-07-22 at 9.44.35 PM" width="30.994" height="30.994" rx="15.497" transform="translate(564.261 415.159)" fill="#7fb3a6"/>
    <circle id="Ellipse_175" data-name="Ellipse 175" cx="2.555" cy="2.555" r="2.555" transform="translate(577.002 428.159)" fill="#1a191e"/>
    <circle id="Ellipse_177" data-name="Ellipse 177" cx="1.916" cy="1.916" r="1.916" transform="translate(620.014 412.828)" fill="#1a191e"/>
    <circle id="Ellipse_176" data-name="Ellipse 176" cx="2.555" cy="2.555" r="2.555" transform="translate(820.594 425.604)" fill="#1a191e"/>
  </g>
</svg>
