<svg xmlns="http://www.w3.org/2000/svg" width="23.582" height="21.163" viewBox="0 0 23.582 21.163">
  <g id="Group_1980" transform="translate(-1804 -57)">
    <path id="Path_3" d="M397.776,226.2h-2.419a1.512,1.512,0,1,1,0-3.023h2.419a1.512,1.512,0,0,1,0,3.023Z" transform="translate(1428.294 -157.109)" fill="rgba(59,71,84,0.3)"/>
    <path id="Path_1" d="M22.07,29.279H1.512a1.512,1.512,0,1,1,0-3.023H22.07a1.512,1.512,0,0,1,0,3.023Z" transform="translate(1804 30.744)" fill="#3b4754"/>
    <path id="Path_2" d="M13.6,226.2H1.512a1.512,1.512,0,1,1,0-3.023H13.6a1.512,1.512,0,1,1,0,3.023Z" transform="translate(1804 -157.109)" fill="#3b4754"/>
    <path id="Path_4" d="M22.07,423.125H1.512a1.512,1.512,0,1,1,0-3.023H22.07a1.512,1.512,0,0,1,0,3.023Z" transform="translate(1804 -344.962)" fill="#3b4754"/>
  </g>
</svg>
