<svg xmlns="http://www.w3.org/2000/svg" width="1597.498" height="815.478" viewBox="0 0 1597.498 815.478">
  <g id="Group_1990" data-name="Group 1990" transform="translate(-97.082 -109.048)">
    <g id="plus" transform="translate(1284.829 229.542) rotate(-45)">
      <rect id="Rectangle_943" data-name="Rectangle 943" width="27.953" height="6.425" transform="translate(0 10.763)" fill="#ead77f"/>
      <rect id="Rectangle_1_copy" data-name="Rectangle 1 copy" width="6.426" height="27.953" transform="translate(10.764)" fill="#ead77f"/>
    </g>
    <path id="Path_9137" data-name="Path 9137" d="M0,45.109a45.109,45.109,0,0,1,90.219,0H0Z" transform="translate(467.944 333.484) rotate(-150)" fill="#dc7759"/>
    <path id="Path_9225" data-name="Path 9225" d="M0,47.065a47.065,47.065,0,0,1,94.13,0H0Z" transform="translate(1193.115 843.007) rotate(120)" fill="#dc7759"/>
    <path id="Path_9222" data-name="Path 9222" d="M0,23.782a23.782,23.782,0,0,1,47.564,0H0Z" transform="translate(887.559 313.352) rotate(150)" fill="#565864"/>
    <path id="Path_9226" data-name="Path 9226" d="M0,23.782a23.782,23.782,0,0,1,47.564,0H0Z" transform="translate(1425.611 769.486) rotate(-120)" fill="#6f729d"/>
    <path id="Path_6513" data-name="Path 6513" d="M335.455,123.762c0-3.341-.065-6.681.039-10.009a53.664,53.664,0,0,1,1.057-8.652c.522-2.74,2.244-4.124,5.468-3.784a15.632,15.632,0,0,1,4.737,1.54c2.375,1.083,4.711,2.218,7.086,3.275a5.041,5.041,0,0,0,3.21.666c1.135-2.61,1.031-5.546,1.514-8.365.287-1.644.365-3.314.718-4.933.665-3.027,3.08-4.215,5.951-2.91,1.318.6,2.531,1.448,3.81,2.14a40.239,40.239,0,0,0,6.668,3.08A101.454,101.454,0,0,1,379.287,84c.287-.783.509-1.592.822-2.362,1.122-2.7,3.341-3.706,6.081-2.518a70.276,70.276,0,0,1,6.381,3.3,43.14,43.14,0,0,0,5.272,2.414c.94-.561.678-1.357.678-2.036a66.037,66.037,0,0,1,1.344-12.4,9.669,9.669,0,0,1,.235-1.227c.835-2.688,2.975-3.771,5.637-2.766a11.607,11.607,0,0,1,2.414,1.422c3.458,2.414,7.373,3.758,11.2,5.168.861-.639.587-1.422.6-2.1.039-2.192.039-4.385.013-6.564a10.86,10.86,0,0,1,1.083-4.841c1.109-2.336,3.119-3.106,5.4-1.957,1.762.887,3.38,2.062,5.089,3.054,1.435.835,2.923,1.592,4.411,2.349a2.069,2.069,0,0,0,.848.078c.757-.587.522-1.357.548-2.049.026-1.357,0-2.714.013-4.071.026-3.615-.47-3.288,3.693-4.437a21.913,21.913,0,0,1,2.7-.431c.77.574.509,1.357.509,2.049.026,4.071.026,8.13,0,12.2a8.676,8.676,0,0,1-.274,2.466,3.734,3.734,0,0,1-4.789,2.779c-3.628-.757-6.825-2.505-10.048-4.228a4.473,4.473,0,0,0-2-.913,8.461,8.461,0,0,0-.248,3.145c-.052,2.61-.065,5.207-.078,7.816a5.689,5.689,0,0,1-.783,2.988,3.464,3.464,0,0,1-4.254,1.618,6.982,6.982,0,0,1-1.449-.574c-4.267-2.453-8.991-3.876-13.388-6.029a1.639,1.639,0,0,0-.626-.013,9.87,9.87,0,0,0-.744,3.6c-.209,3.223-.457,6.433-.692,9.656a12.722,12.722,0,0,1-.274,1.853c-.822,3.262-2.819,4.228-5.82,2.766-3.471-1.683-6.9-3.445-10.348-5.154a5.108,5.108,0,0,0-2.714-1.018,36.9,36.9,0,0,0-3.354,12.2c-.4,4.985-2.414,6.2-7.021,4.111-3.132-1.409-6.25-2.819-9.617-4.332a47.938,47.938,0,0,0-1.4,9.121c-.065,1.044.026,2.088-.039,3.132a3.713,3.713,0,0,1-3.81,3.719,6.045,6.045,0,0,1-2.166-.222c-3.562-1.135-7.229-1.957-10.557-3.8a11.969,11.969,0,0,0-4.7-1.866c-1.188,4.006-.587,8.091-.77,12.123C340.479,123.357,338.273,124.4,335.455,123.762Z" transform="translate(-131.439 253.855) rotate(30)" fill="#ead77f"/>
    <path id="Path_9224" data-name="Path 9224" d="M335.455,123.762c0-3.341-.065-6.681.039-10.009a53.664,53.664,0,0,1,1.057-8.652c.522-2.74,2.244-4.124,5.468-3.784a15.632,15.632,0,0,1,4.737,1.54c2.375,1.083,4.711,2.218,7.086,3.275a5.041,5.041,0,0,0,3.21.666c1.135-2.61,1.031-5.546,1.514-8.365.287-1.644.365-3.314.718-4.933.665-3.027,3.08-4.215,5.951-2.91,1.318.6,2.531,1.448,3.81,2.14a40.239,40.239,0,0,0,6.668,3.08A101.454,101.454,0,0,1,379.287,84c.287-.783.509-1.592.822-2.362,1.122-2.7,3.341-3.706,6.081-2.518a70.276,70.276,0,0,1,6.381,3.3,43.14,43.14,0,0,0,5.272,2.414c.94-.561.678-1.357.678-2.036a66.037,66.037,0,0,1,1.344-12.4,9.669,9.669,0,0,1,.235-1.227c.835-2.688,2.975-3.771,5.637-2.766a11.607,11.607,0,0,1,2.414,1.422c3.458,2.414,7.373,3.758,11.2,5.168.861-.639.587-1.422.6-2.1.039-2.192.039-4.385.013-6.564a10.86,10.86,0,0,1,1.083-4.841c1.109-2.336,3.119-3.106,5.4-1.957,1.762.887,3.38,2.062,5.089,3.054,1.435.835,2.923,1.592,4.411,2.349a2.069,2.069,0,0,0,.848.078c.757-.587.522-1.357.548-2.049.026-1.357,0-2.714.013-4.071.026-3.615-.47-3.288,3.693-4.437a21.913,21.913,0,0,1,2.7-.431c.77.574.509,1.357.509,2.049.026,4.071.026,8.13,0,12.2a8.676,8.676,0,0,1-.274,2.466,3.734,3.734,0,0,1-4.789,2.779c-3.628-.757-6.825-2.505-10.048-4.228a4.473,4.473,0,0,0-2-.913,8.461,8.461,0,0,0-.248,3.145c-.052,2.61-.065,5.207-.078,7.816a5.689,5.689,0,0,1-.783,2.988,3.464,3.464,0,0,1-4.254,1.618,6.982,6.982,0,0,1-1.449-.574c-4.267-2.453-8.991-3.876-13.388-6.029a1.639,1.639,0,0,0-.626-.013,9.87,9.87,0,0,0-.744,3.6c-.209,3.223-.457,6.433-.692,9.656a12.722,12.722,0,0,1-.274,1.853c-.822,3.262-2.819,4.228-5.82,2.766-3.471-1.683-6.9-3.445-10.348-5.154a5.108,5.108,0,0,0-2.714-1.018,36.9,36.9,0,0,0-3.354,12.2c-.4,4.985-2.414,6.2-7.021,4.111-3.132-1.409-6.25-2.819-9.617-4.332a47.938,47.938,0,0,0-1.4,9.121c-.065,1.044.026,2.088-.039,3.132a3.713,3.713,0,0,1-3.81,3.719,6.045,6.045,0,0,1-2.166-.222c-3.562-1.135-7.229-1.957-10.557-3.8a11.969,11.969,0,0,0-4.7-1.866c-1.188,4.006-.587,8.091-.77,12.123C340.479,123.357,338.273,124.4,335.455,123.762Z" transform="translate(1245.561 312.213) rotate(30)" fill="#6f729d"/>
    <circle id="smaller_circle" data-name="smaller circle" cx="22.289" cy="22.289" r="22.289" transform="translate(907.261 115.048)" fill="none" stroke="#4e4e58" stroke-width="12"/>
    <path id="Path_9227" data-name="Path 9227" d="M239.59,252.47l-14.87,19,19,14.87,14.86-19ZM242.85,279l-10.74-8.39,8.39-10.74,10.74,8.39Z" transform="translate(1436 158)" fill="#7fb3a6"/>
    <g id="Group_1982" data-name="Group 1982" transform="translate(6736 -630)">
      <rect id="Rectangle_1024" data-name="Rectangle 1024" width="15.93" height="15.93" transform="translate(-6349.894 1334.87) rotate(-23.04)" fill="#ead77f" opacity="0.8"/>
      <rect id="Rectangle_1025" data-name="Rectangle 1025" width="15.93" height="15.93" transform="translate(-6328.992 1343.297) rotate(-23.04)" fill="#ead77f"/>
      <rect id="Rectangle_1026" data-name="Rectangle 1026" width="15.93" height="15.93" transform="translate(-6337.423 1364.19) rotate(-23.04)" fill="#ead77f" opacity="0.8"/>
      <rect id="Rectangle_1027" data-name="Rectangle 1027" width="15.93" height="15.93" transform="translate(-6358.313 1355.768) rotate(-23.04)" fill="#ead77f"/>
    </g>
    <rect id="Rectangle_1058" data-name="Rectangle 1058" width="14.11" height="14.11" transform="translate(273.208 393.087) rotate(-50.73)" fill="#7fb3a6"/>
  </g>
</svg>
