<svg xmlns="http://www.w3.org/2000/svg" width="1920" height="739" viewBox="0 0 1920 739">
  <g id="Group_1984" data-name="Group 1984" transform="translate(0 -133)">
    <path id="Path_7364" data-name="Path 7364" d="M0,0H1920V739H0Z" transform="translate(0 133)" fill="#4fe3c1"/>
    <g id="plus" transform="translate(1243.623 715.278) rotate(-45)">
      <rect id="Rectangle_943" data-name="Rectangle 943" width="19.976" height="4.592" transform="translate(0 7.691)" fill="#25977d"/>
      <rect id="Rectangle_1_copy" data-name="Rectangle 1 copy" width="4.592" height="19.976" transform="translate(7.692)" fill="#25977d"/>
    </g>
    <g id="plus-2" data-name="plus" transform="translate(1271.874 370.125) rotate(-45)">
      <rect id="Rectangle_943-2" data-name="Rectangle 943" width="19.976" height="4.592" transform="translate(0 7.691)" fill="#25977d"/>
      <rect id="Rectangle_1_copy-2" data-name="Rectangle 1 copy" width="4.592" height="19.976" transform="translate(7.692)" fill="#25977d"/>
    </g>
    <g id="plus-3" data-name="plus" transform="translate(529.623 734.514) rotate(-45)">
      <rect id="Rectangle_943-3" data-name="Rectangle 943" width="19.976" height="4.592" transform="translate(0 7.691)" fill="#25977d"/>
      <rect id="Rectangle_1_copy-3" data-name="Rectangle 1 copy" width="4.592" height="19.976" transform="translate(7.692)" fill="#25977d"/>
    </g>
    <g id="plus-4" data-name="plus" transform="translate(929.465 284.53) rotate(-45)" opacity="0.6">
      <rect id="Rectangle_943-4" data-name="Rectangle 943" width="15.469" height="3.556" transform="translate(0 5.956)" fill="#25977d"/>
      <rect id="Rectangle_1_copy-4" data-name="Rectangle 1 copy" width="3.556" height="15.469" transform="translate(5.956)" fill="#25977d"/>
    </g>
    <g id="plus-5" data-name="plus" transform="translate(141.247 241.358) rotate(-45)">
      <rect id="Rectangle_943-5" data-name="Rectangle 943" width="27.953" height="6.425" transform="translate(0 10.763)" fill="#25977d"/>
      <rect id="Rectangle_1_copy-5" data-name="Rectangle 1 copy" width="6.426" height="27.953" transform="translate(10.764)" fill="#25977d"/>
    </g>
    <ellipse id="bigger_circle" data-name="bigger circle" cx="52.627" cy="52.627" rx="52.627" ry="52.627" transform="translate(1725 686.907)" fill="none" stroke="#fff" stroke-width="20"/>
    <g id="equal" transform="translate(1763.977 727.896)">
      <rect id="Rectangle_942" data-name="Rectangle 942" width="26.887" height="6.162" transform="translate(0 13.668)" fill="#25977d"/>
      <rect id="Rectangle_1_copy-6" data-name="Rectangle 1 copy" width="26.887" height="6.162" fill="#25977d"/>
    </g>
    <g id="plus-6" data-name="plus" transform="matrix(0.966, -0.259, 0.259, 0.966, 1832.523, 539.35)">
      <rect id="Rectangle_943-6" data-name="Rectangle 943" width="26.135" height="6.007" transform="translate(0 10.063)" fill="#25977d"/>
      <rect id="Rectangle_1_copy-7" data-name="Rectangle 1 copy" width="6.008" height="26.135" transform="translate(10.064)" fill="#25977d"/>
    </g>
    <g id="plus-7" data-name="plus" transform="matrix(0.966, -0.259, 0.259, 0.966, 1832.523, 539.35)" opacity="0.6">
      <rect id="Rectangle_943-7" data-name="Rectangle 943" width="26.135" height="6.007" transform="translate(0 10.063)" fill="#25977d"/>
      <rect id="Rectangle_1_copy-8" data-name="Rectangle 1 copy" width="6.008" height="26.135" transform="translate(10.064)" fill="#25977d"/>
    </g>
    <g id="Group_1681" data-name="Group 1681" transform="translate(1417.137 584.027)">
      <path id="Path_6523" data-name="Path 6523" d="M0,0A4.557,4.557,0,0,1,2.814,1.8c.349.584.67,1.182.983,1.788,2.885,5.6,5.727,11.226,8.683,16.79A5.122,5.122,0,0,1,13,25.06c-.527-.085-.577-.62-.769-.99q-4-7.715-7.964-15.436C3.07,6.311,1.852,4,.655,1.681A4.323,4.323,0,0,1,0,0Z" transform="matrix(0.966, -0.259, 0.259, 0.966, 26.999, 4.733)" fill="#fff"/>
      <path id="Path_6521" data-name="Path 6521" d="M16.925,32.807C15.935,31.51.4,1.443,0,.04A2.3,2.3,0,0,1,2.643,1.564c3.747,7.351,7.551,14.667,11.34,21.99,1.1,2.123,2.158,4.267,3.334,6.347A2.216,2.216,0,0,1,16.925,32.807Z" transform="matrix(0.966, -0.259, 0.259, 0.966, 20.786, 4.579)" fill="#fff"/>
      <path id="Path_6517" data-name="Path 6517" d="M21.626,38.469a2.525,2.525,0,0,1-1.168,1.154c-.5-.085-.563-.541-.734-.869Q14.457,28.614,9.218,18.46,4.944,10.2.662,1.955A4.175,4.175,0,0,1,0,.417c1.539-.648,1.6-.641,2.315.748Q7.572,11.315,12.829,21.459q4.007,7.725,8.007,15.443C21.1,37.4,21.349,37.914,21.626,38.469Z" transform="matrix(0.966, -0.259, 0.259, 0.966, 12.321, 6.87)" fill="#fff"/>
      <path id="Path_6519" data-name="Path 6519" d="M19.211,37.446C12.736,24.937,6.375,12.642,0,.341c1.681-.57,1.852-.513,2.564.855Q6.133,8.087,9.688,14.979q4.894,9.467,9.794,18.927c.185.356.328.734.541,1.061a1.218,1.218,0,0,1-.171,1.688C19.7,36.819,19.568,37,19.211,37.446Z" transform="matrix(0.966, -0.259, 0.259, 0.966, 15.913, 5.522)" fill="#fff"/>
      <path id="Path_6516" data-name="Path 6516" d="M0,.755A1.841,1.841,0,0,1,1.617,0c6.888,13.306,13.8,26.655,20.665,39.912-.207.719-.727.862-1.2,1.1-.128-.085-.321-.142-.392-.264-.449-.791-.89-1.588-1.3-2.393q-4.188-8.1-8.363-16.205Q5.941,12.313.848,2.472C.556,1.923.292,1.361,0,.755Z" transform="matrix(0.966, -0.259, 0.259, 0.966, 9.085, 8.692)" fill="#fff"/>
      <path id="Path_6514" data-name="Path 6514" d="M0,.8C.335.527.541.335.769.178A.912.912,0,0,1,1.645.05c.4.719.912,1.581,1.375,2.472q4.573,8.868,9.132,17.751,4.776,9.242,9.567,18.478c.285.549.549,1.111.8,1.631a2.1,2.1,0,0,1-1.311.812c-.606-.171-.7-.741-.919-1.168-2.123-4.089-4.224-8.185-6.34-12.273Q7.437,15.176.919,2.614C.62,2.059.349,1.5,0,.8Z" transform="matrix(0.966, -0.259, 0.259, 0.966, 6.183, 11.099)" fill="#fff"/>
      <path id="Path_6515" data-name="Path 6515" d="M0,1.033A2.3,2.3,0,0,1,1.339,0c.463.15.534.584.712.926Q7.544,11.515,13.014,22.118q4.156,8.024,8.32,16.035c.264.506.5,1.019.776,1.581a1.882,1.882,0,0,1-1.845.456Q10.168,20.668,0,1.033Z" transform="matrix(0.966, -0.259, 0.259, 0.966, 3.783, 13.866)" fill="#fff"/>
      <path id="Path_6518" data-name="Path 6518" d="M20.693,37.81c-1.6.427-1.66.427-2.386-.976q-4.189-8.1-8.363-16.205Q5.371,11.771.776,2.921C.52,2.415.278,1.909,0,1.346.342.883.67.435.99,0c.641.1.691.627.883,1Q7.6,12.045,13.3,23.1c2.272,4.388,4.566,8.762,6.838,13.157C20.394,36.742,20.821,37.184,20.693,37.81Z" transform="matrix(0.966, -0.259, 0.259, 0.966, 1.655, 17.401)" fill="#fff"/>
      <path id="Path_6520" data-name="Path 6520" d="M18.145,33.439a2.318,2.318,0,0,1-2.664-1.425c-4.324-8.519-8.733-17-13.114-25.494C1.769,5.359,1.192,4.176.515,3.065A2.211,2.211,0,0,1,.715.009c.47-.078.513.363.684.62a12.123,12.123,0,0,1,.67,1.19q6.924,13.42,13.84,26.848c.627,1.211,1.289,2.408,1.916,3.619C17.989,32.62,18.295,32.933,18.145,33.439Z" transform="matrix(0.966, -0.259, 0.259, 0.966, 0.285, 22.287)" fill="#fff"/>
      <path id="Path_6522" data-name="Path 6522" d="M14.122,26.314a4.439,4.439,0,0,1-3.291-2.557Q5.948,14.087.88,4.517C.089,3.021-.381,1.617.4,0c.392-.014.456.378.6.662q6.55,12.651,13.078,25.3A1.2,1.2,0,0,1,14.122,26.314Z" transform="matrix(0.966, -0.259, 0.259, 0.966, 0, 28.191)" fill="#fff"/>
    </g>
    <path id="Path_6513" data-name="Path 6513" d="M335.446,93.568c0-1.934-.038-3.869.023-5.8a31.076,31.076,0,0,1,.612-5.01c.3-1.587,1.3-2.388,3.166-2.191a9.052,9.052,0,0,1,2.743.892c1.375.627,2.728,1.285,4.1,1.9a2.919,2.919,0,0,0,1.859.385c.657-1.511.6-3.211.877-4.844.166-.952.212-1.919.416-2.856a2.27,2.27,0,0,1,3.446-1.685c.763.348,1.466.839,2.206,1.239a23.3,23.3,0,0,0,3.861,1.783,58.743,58.743,0,0,1,2.07-6.839c.166-.453.295-.922.476-1.368a2.443,2.443,0,0,1,3.521-1.458,40.693,40.693,0,0,1,3.7,1.912,24.98,24.98,0,0,0,3.053,1.4c.544-.325.393-.786.393-1.179a38.24,38.24,0,0,1,.778-7.179,5.6,5.6,0,0,1,.136-.71,2.3,2.3,0,0,1,3.264-1.6,6.722,6.722,0,0,1,1.4.824,27.663,27.663,0,0,0,6.483,2.992c.5-.37.34-.824.348-1.217.023-1.269.023-2.539.008-3.8a6.288,6.288,0,0,1,.627-2.8,2.133,2.133,0,0,1,3.128-1.133c1.02.514,1.957,1.194,2.947,1.768.831.484,1.693.922,2.554,1.36a1.2,1.2,0,0,0,.491.045c.438-.34.3-.786.317-1.186.015-.786,0-1.572.008-2.358.015-2.093-.272-1.9,2.138-2.569a12.69,12.69,0,0,1,1.564-.249c.446.332.295.786.295,1.186.015,2.358.015,4.708,0,7.065a5.023,5.023,0,0,1-.159,1.428,2.162,2.162,0,0,1-2.773,1.61,22.023,22.023,0,0,1-5.818-2.448,2.59,2.59,0,0,0-1.156-.529,4.9,4.9,0,0,0-.144,1.821c-.03,1.511-.038,3.015-.045,4.526a3.294,3.294,0,0,1-.453,1.73,2.006,2.006,0,0,1-2.463.937,4.044,4.044,0,0,1-.839-.332c-2.471-1.421-5.206-2.244-7.753-3.491a.949.949,0,0,0-.363-.008,5.716,5.716,0,0,0-.431,2.086c-.121,1.866-.264,3.725-.4,5.592a7.364,7.364,0,0,1-.159,1.073c-.476,1.889-1.632,2.448-3.37,1.6-2.01-.975-4-1.995-5.992-2.985a2.958,2.958,0,0,0-1.572-.589,21.368,21.368,0,0,0-1.942,7.065c-.234,2.887-1.4,3.589-4.065,2.38-1.813-.816-3.619-1.632-5.569-2.509a27.758,27.758,0,0,0-.809,5.282c-.038.6.015,1.209-.023,1.814a2.15,2.15,0,0,1-2.206,2.154,3.5,3.5,0,0,1-1.254-.128,32.8,32.8,0,0,1-6.113-2.2,6.931,6.931,0,0,0-2.72-1.081c-.688,2.32-.34,4.685-.446,7.02A3.823,3.823,0,0,1,335.446,93.568Z" transform="translate(402.17 345.434) rotate(45)" fill="#fff"/>
    <path id="Path_9134" data-name="Path 9134" d="M335.446,93.568c0-1.934-.038-3.869.023-5.8a31.076,31.076,0,0,1,.612-5.01c.3-1.587,1.3-2.388,3.166-2.191a9.052,9.052,0,0,1,2.743.892c1.375.627,2.728,1.285,4.1,1.9a2.919,2.919,0,0,0,1.859.385c.657-1.511.6-3.211.877-4.844.166-.952.212-1.919.416-2.856a2.27,2.27,0,0,1,3.446-1.685c.763.348,1.466.839,2.206,1.239a23.3,23.3,0,0,0,3.861,1.783,58.743,58.743,0,0,1,2.07-6.839c.166-.453.295-.922.476-1.368a2.443,2.443,0,0,1,3.521-1.458,40.693,40.693,0,0,1,3.7,1.912,24.98,24.98,0,0,0,3.053,1.4c.544-.325.393-.786.393-1.179a38.24,38.24,0,0,1,.778-7.179,5.6,5.6,0,0,1,.136-.71,2.3,2.3,0,0,1,3.264-1.6,6.722,6.722,0,0,1,1.4.824,27.663,27.663,0,0,0,6.483,2.992c.5-.37.34-.824.348-1.217.023-1.269.023-2.539.008-3.8a6.288,6.288,0,0,1,.627-2.8,2.133,2.133,0,0,1,3.128-1.133c1.02.514,1.957,1.194,2.947,1.768.831.484,1.693.922,2.554,1.36a1.2,1.2,0,0,0,.491.045c.438-.34.3-.786.317-1.186.015-.786,0-1.572.008-2.358.015-2.093-.272-1.9,2.138-2.569a12.69,12.69,0,0,1,1.564-.249c.446.332.295.786.295,1.186.015,2.358.015,4.708,0,7.065a5.023,5.023,0,0,1-.159,1.428,2.162,2.162,0,0,1-2.773,1.61,22.023,22.023,0,0,1-5.818-2.448,2.59,2.59,0,0,0-1.156-.529,4.9,4.9,0,0,0-.144,1.821c-.03,1.511-.038,3.015-.045,4.526a3.294,3.294,0,0,1-.453,1.73,2.006,2.006,0,0,1-2.463.937,4.044,4.044,0,0,1-.839-.332c-2.471-1.421-5.206-2.244-7.753-3.491a.949.949,0,0,0-.363-.008,5.716,5.716,0,0,0-.431,2.086c-.121,1.866-.264,3.725-.4,5.592a7.364,7.364,0,0,1-.159,1.073c-.476,1.889-1.632,2.448-3.37,1.6-2.01-.975-4-1.995-5.992-2.985a2.958,2.958,0,0,0-1.572-.589,21.368,21.368,0,0,0-1.942,7.065c-.234,2.887-1.4,3.589-4.065,2.38-1.813-.816-3.619-1.632-5.569-2.509a27.758,27.758,0,0,0-.809,5.282c-.038.6.015,1.209-.023,1.814a2.15,2.15,0,0,1-2.206,2.154,3.5,3.5,0,0,1-1.254-.128,32.8,32.8,0,0,1-6.113-2.2,6.931,6.931,0,0,0-2.72-1.081c-.688,2.32-.34,4.685-.446,7.02A3.823,3.823,0,0,1,335.446,93.568Z" transform="matrix(0.966, -0.259, 0.259, 0.966, 739.3, 723.676)" fill="#3c555e" opacity="0.5"/>
    <path id="Path_9135" data-name="Path 9135" d="M335.446,93.568c0-1.934-.038-3.869.023-5.8a31.076,31.076,0,0,1,.612-5.01c.3-1.587,1.3-2.388,3.166-2.191a9.052,9.052,0,0,1,2.743.892c1.375.627,2.728,1.285,4.1,1.9a2.919,2.919,0,0,0,1.859.385c.657-1.511.6-3.211.877-4.844.166-.952.212-1.919.416-2.856a2.27,2.27,0,0,1,3.446-1.685c.763.348,1.466.839,2.206,1.239a23.3,23.3,0,0,0,3.861,1.783,58.743,58.743,0,0,1,2.07-6.839c.166-.453.295-.922.476-1.368a2.443,2.443,0,0,1,3.521-1.458,40.693,40.693,0,0,1,3.7,1.912,24.98,24.98,0,0,0,3.053,1.4c.544-.325.393-.786.393-1.179a38.24,38.24,0,0,1,.778-7.179,5.6,5.6,0,0,1,.136-.71,2.3,2.3,0,0,1,3.264-1.6,6.722,6.722,0,0,1,1.4.824,27.663,27.663,0,0,0,6.483,2.992c.5-.37.34-.824.348-1.217.023-1.269.023-2.539.008-3.8a6.288,6.288,0,0,1,.627-2.8,2.133,2.133,0,0,1,3.128-1.133c1.02.514,1.957,1.194,2.947,1.768.831.484,1.693.922,2.554,1.36a1.2,1.2,0,0,0,.491.045c.438-.34.3-.786.317-1.186.015-.786,0-1.572.008-2.358.015-2.093-.272-1.9,2.138-2.569a12.69,12.69,0,0,1,1.564-.249c.446.332.295.786.295,1.186.015,2.358.015,4.708,0,7.065a5.023,5.023,0,0,1-.159,1.428,2.162,2.162,0,0,1-2.773,1.61,22.023,22.023,0,0,1-5.818-2.448,2.59,2.59,0,0,0-1.156-.529,4.9,4.9,0,0,0-.144,1.821c-.03,1.511-.038,3.015-.045,4.526a3.294,3.294,0,0,1-.453,1.73,2.006,2.006,0,0,1-2.463.937,4.044,4.044,0,0,1-.839-.332c-2.471-1.421-5.206-2.244-7.753-3.491a.949.949,0,0,0-.363-.008,5.716,5.716,0,0,0-.431,2.086c-.121,1.866-.264,3.725-.4,5.592a7.364,7.364,0,0,1-.159,1.073c-.476,1.889-1.632,2.448-3.37,1.6-2.01-.975-4-1.995-5.992-2.985a2.958,2.958,0,0,0-1.572-.589,21.368,21.368,0,0,0-1.942,7.065c-.234,2.887-1.4,3.589-4.065,2.38-1.813-.816-3.619-1.632-5.569-2.509a27.758,27.758,0,0,0-.809,5.282c-.038.6.015,1.209-.023,1.814a2.15,2.15,0,0,1-2.206,2.154,3.5,3.5,0,0,1-1.254-.128,32.8,32.8,0,0,1-6.113-2.2,6.931,6.931,0,0,0-2.72-1.081c-.688,2.32-.34,4.685-.446,7.02A3.823,3.823,0,0,1,335.446,93.568Z" transform="translate(29.256 215.419)" fill="#3c555e" opacity="0.5"/>
    <g id="Group_1680" data-name="Group 1680" transform="translate(-33.524 -10.222)">
      <path id="Path_6523-2" data-name="Path 6523" d="M0,0A5.566,5.566,0,0,1,3.437,2.2c.426.713.818,1.444,1.2,2.184,3.524,6.838,7,13.712,10.606,20.507,1,1.888,1.5,3.68.635,5.716-.644-.1-.7-.757-.94-1.209q-4.881-9.423-9.727-18.854C3.75,7.709,2.262,4.89.8,2.053A5.28,5.28,0,0,1,0,0Z" transform="matrix(0.966, -0.259, 0.259, 0.966, 1568.798, 319.422)" fill="#39aa91"/>
      <path id="Path_6521-2" data-name="Path 6521" d="M20.672,40.07C19.463,38.487.487,1.763,0,.049,1.6-.195,2.506.484,3.228,1.911,7.8,10.889,12.45,19.825,17.079,28.769c1.34,2.593,2.636,5.211,4.072,7.752A2.706,2.706,0,0,1,20.672,40.07Z" transform="matrix(0.966, -0.259, 0.259, 0.966, 1561.208, 319.234)" fill="#39aa91"/>
      <path id="Path_6517-2" data-name="Path 6517" d="M26.414,46.986A3.085,3.085,0,0,1,24.988,48.4c-.609-.1-.687-.661-.9-1.061Q17.657,34.949,11.258,22.547,6.038,12.459.809,2.388A5.1,5.1,0,0,1,0,.509c1.879-.792,1.949-.783,2.828.914q6.421,12.4,12.842,24.787,4.894,9.436,9.779,18.862C25.771,45.681,26.075,46.308,26.414,46.986Z" transform="matrix(0.966, -0.259, 0.259, 0.966, 1550.87, 322.032)" fill="#39aa91"/>
      <path id="Path_6519-2" data-name="Path 6519" d="M23.465,45.736C15.556,30.458,7.787,15.441,0,.416,2.053-.28,2.262-.21,3.132,1.46q4.359,8.418,8.7,16.835Q17.81,29.858,23.8,41.412c.226.435.4.9.661,1.3a1.487,1.487,0,0,1-.209,2.062C24.056,44.97,23.9,45.2,23.465,45.736Z" transform="matrix(0.966, -0.259, 0.259, 0.966, 1555.257, 320.386)" fill="#39aa91"/>
      <path id="Path_6516-2" data-name="Path 6516" d="M0,.922A2.248,2.248,0,0,1,1.975,0c8.413,16.252,16.853,32.557,25.24,48.748-.252.879-.887,1.053-1.462,1.349-.157-.1-.392-.174-.479-.322-.548-.966-1.088-1.94-1.592-2.923q-5.116-9.892-10.214-19.793Q7.256,15.039,1.035,3.019C.679,2.349.357,1.662,0,.922Z" transform="matrix(0.966, -0.259, 0.259, 0.966, 1546.918, 324.258)" fill="#39aa91"/>
      <path id="Path_6514-2" data-name="Path 6514" d="M0,.975C.409.644.661.409.94.218A1.114,1.114,0,0,1,2.01.061C2.5.94,3.123,1.992,3.689,3.08Q9.275,13.912,14.843,24.761,20.676,36.05,26.527,47.33c.348.67.67,1.357.983,1.992a2.561,2.561,0,0,1-1.6.992c-.74-.209-.853-.9-1.122-1.427-2.593-4.994-5.159-10-7.743-14.991Q9.083,18.536,1.122,3.193C.757,2.515.426,1.827,0,.975Z" transform="matrix(0.966, -0.259, 0.259, 0.966, 1543.373, 327.198)" fill="#39aa91"/>
      <path id="Path_6515-2" data-name="Path 6515" d="M0,1.262A2.811,2.811,0,0,1,1.636,0c.565.183.653.713.87,1.131Q9.214,14.064,15.9,27.015q5.077,9.8,10.162,19.585c.322.618.609,1.244.948,1.931a2.3,2.3,0,0,1-2.253.557Q12.42,25.244,0,1.262Z" transform="matrix(0.966, -0.259, 0.259, 0.966, 1540.442, 330.578)" fill="#39aa91"/>
      <path id="Path_6518-2" data-name="Path 6518" d="M25.275,46.181c-1.958.522-2.027.522-2.915-1.192Q17.244,35.1,12.146,25.2,6.56,14.377.948,3.567C.635,2.949.339,2.332,0,1.644.418,1.079.818.531,1.209,0c.783.122.844.766,1.079,1.218q6.995,13.494,13.955,27c2.775,5.359,5.577,10.7,8.352,16.07C24.909,44.876,25.431,45.416,25.275,46.181Z" transform="matrix(0.966, -0.259, 0.259, 0.966, 1537.843, 334.895)" fill="#39aa91"/>
      <path id="Path_6520-2" data-name="Path 6520" d="M22.163,40.842a2.832,2.832,0,0,1-3.254-1.74C13.628,28.7,8.242,18.334,2.891,7.963,2.161,6.545,1.456,5.1.629,3.744-.189,2.4-.31,1.194.873.011c.574-.1.626.444.835.757a14.807,14.807,0,0,1,.818,1.453q8.457,16.391,16.9,32.792c.766,1.479,1.575,2.941,2.34,4.42C21.971,39.841,22.345,40.224,22.163,40.842Z" transform="matrix(0.966, -0.259, 0.259, 0.966, 1536.169, 340.863)" fill="#39aa91"/>
      <path id="Path_6522-2" data-name="Path 6522" d="M17.248,32.14a5.422,5.422,0,0,1-4.02-3.123Q7.265,17.205,1.074,5.516C.109,3.689-.466,1.975.492,0c.478-.017.557.461.731.809q8,15.452,15.974,30.9A1.46,1.46,0,0,1,17.248,32.14Z" transform="matrix(0.966, -0.259, 0.259, 0.966, 1535.821, 348.074)" fill="#39aa91"/>
    </g>
    <circle id="smaller_circle" data-name="smaller circle" cx="22.289" cy="22.289" r="22.289" transform="translate(627.94 190.048)" fill="none" stroke="#fff" stroke-width="12"/>
    <g id="Polygon_2" data-name="Polygon 2" transform="translate(1100.652 594.085) rotate(30)" fill="none">
      <path d="M9.5,0,19,16H0Z" stroke="none"/>
      <path d="M 9.500000953674316 5.876142501831055 L 5.270210266113281 13 L 13.72979164123535 13 L 9.500000953674316 5.876142501831055 M 9.500000953674316 0 L 19 16 L 1.9073486328125e-06 16 L 9.500000953674316 0 Z" stroke="none" fill="#40a18b"/>
    </g>
    <path id="Polygon_3" data-name="Polygon 3" d="M11.919,0,23.838,20.113H0Z" transform="matrix(0.966, -0.259, 0.259, 0.966, 454.697, 365.893)" fill="#40a18b" opacity="0.8"/>
    <path id="Polygon_5" data-name="Polygon 5" d="M8.5,0,17,14.344H0Z" transform="matrix(0.966, -0.259, 0.259, 0.966, 1172.795, 239.465)" fill="#40a18b"/>
    <g id="Ellipse_92" data-name="Ellipse 92" transform="matrix(0.966, 0.259, -0.259, 0.966, 374.961, 478.453)" fill="none" stroke="#239278" stroke-width="5">
      <circle cx="11" cy="11" r="11" stroke="none"/>
      <circle cx="11" cy="11" r="8.5" fill="none"/>
    </g>
    <circle id="Ellipse_94" data-name="Ellipse 94" cx="16.994" cy="16.994" r="16.994" transform="matrix(0.966, 0.259, -0.259, 0.966, 463.426, 506.329)" fill="none" stroke="#239278" stroke-linecap="square" stroke-width="6" stroke-dasharray="3 3" opacity="0.8"/>
    <circle id="Ellipse_152" data-name="Ellipse 152" cx="14.994" cy="14.994" r="14.994" transform="matrix(0.966, 0.259, -0.259, 0.966, 252.774, 164.745)" fill="none" stroke="#fff" stroke-linecap="square" stroke-width="7" stroke-dasharray="3 3"/>
    <g id="Group_1683" data-name="Group 1683" transform="translate(-288.859 793.777) rotate(-50)">
      <g id="Ellipse_93" data-name="Ellipse 93" transform="matrix(0.966, 0.259, -0.259, 0.966, 430.564, 167.329)" fill="none" stroke="#239278" stroke-width="10">
        <circle cx="16.598" cy="16.598" r="16.598" stroke="none"/>
        <circle cx="16.598" cy="16.598" r="11.598" fill="none"/>
      </g>
      <rect id="Rectangle_944" data-name="Rectangle 944" width="60.419" height="27.944" transform="translate(412.423 188.364)" fill="#4fe3c1"/>
    </g>
    <g id="Group_1742" data-name="Group 1742" transform="translate(557.576 1099.762) rotate(-150)">
      <g id="Ellipse_93-2" data-name="Ellipse 93" transform="matrix(0.966, 0.259, -0.259, 0.966, 430.564, 167.329)" fill="none" stroke="#239278" stroke-width="10">
        <circle cx="16.598" cy="16.598" r="16.598" stroke="none"/>
        <circle cx="16.598" cy="16.598" r="11.598" fill="none"/>
      </g>
      <rect id="Rectangle_944-2" data-name="Rectangle 944" width="60.419" height="27.944" transform="translate(412.423 188.364)" fill="#4fe3c1"/>
    </g>
    <circle id="Ellipse_91" data-name="Ellipse 91" cx="5.242" cy="5.242" r="5.242" transform="matrix(0.966, 0.259, -0.259, 0.966, 1015.784, 488.443)" fill="#3b4754"/>
    <g id="times" transform="translate(1800.715 171)">
      <path id="Path_7010" data-name="Path 7010" d="M-1546.5,246.2l-31.944,31.914-7.326-7.326,31.937-31.914Z" fill="#fff" fill-rule="evenodd"/>
      <path id="Rectangle_1_copy-9" data-name="Rectangle 1 copy" d="M-1546.5,270.788l-7.333,7.326L-1585.77,246.2l7.326-7.326Z" transform="translate(0 -0.001)" fill="#fff" fill-rule="evenodd"/>
    </g>
    <g id="Group_1743" data-name="Group 1743" transform="translate(1674 -1032.386)">
      <path id="Path_7190" data-name="Path 7190" d="M220,559.6a13.8,13.8,0,1,0,13.8,13.8A13.8,13.8,0,0,0,220,559.6Zm0,26.113a12.274,12.274,0,1,1,12.274-12.273A12.282,12.282,0,0,1,220,585.713Z" transform="translate(-920 1162)" fill="#239278"/>
      <path id="Path_7191" data-name="Path 7191" d="M224.5,567.4a10.5,10.5,0,1,0,10.5,10.5A10.494,10.494,0,0,0,224.5,567.4Zm0,19.511a8.972,8.972,0,1,1,8.972-8.972A8.977,8.977,0,0,1,224.5,586.911Z" transform="translate(-924.499 1157.501)" fill="#239278"/>
      <path id="Path_7192" data-name="Path 7192" d="M229.745,576.6a6.645,6.645,0,1,0,6.645,6.645A6.656,6.656,0,0,0,229.745,576.6Zm0,11.723a5.121,5.121,0,1,1,5.121-5.121A5.139,5.139,0,0,1,229.745,588.323Z" transform="translate(-929.747 1152.195)" fill="#239278"/>
    </g>
    <g id="Group_1757" data-name="Group 1757" transform="translate(1761.8 -1373.092)" opacity="0.6">
      <path id="Path_7190-2" data-name="Path 7190" d="M220,559.6a13.8,13.8,0,1,0,13.8,13.8A13.8,13.8,0,0,0,220,559.6Zm0,26.113a12.274,12.274,0,1,1,12.274-12.273A12.282,12.282,0,0,1,220,585.713Z" transform="translate(-920 1162)" fill="#239278"/>
      <path id="Path_7191-2" data-name="Path 7191" d="M224.5,567.4a10.5,10.5,0,1,0,10.5,10.5A10.494,10.494,0,0,0,224.5,567.4Zm0,19.511a8.972,8.972,0,1,1,8.972-8.972A8.977,8.977,0,0,1,224.5,586.911Z" transform="translate(-924.499 1157.501)" fill="#239278"/>
      <path id="Path_7192-2" data-name="Path 7192" d="M229.745,576.6a6.645,6.645,0,1,0,6.645,6.645A6.656,6.656,0,0,0,229.745,576.6Zm0,11.723a5.121,5.121,0,1,1,5.121-5.121A5.139,5.139,0,0,1,229.745,588.323Z" transform="translate(-929.747 1152.195)" fill="#239278"/>
    </g>
    <g id="Group_1981" data-name="Group 1981" transform="translate(2365.8 -1205.092)" opacity="0.6">
      <path id="Path_7190-3" data-name="Path 7190" d="M220,559.6a13.8,13.8,0,1,0,13.8,13.8A13.8,13.8,0,0,0,220,559.6Zm0,26.113a12.274,12.274,0,1,1,12.274-12.273A12.282,12.282,0,0,1,220,585.713Z" transform="translate(-920 1162)" fill="#239278"/>
      <path id="Path_7191-3" data-name="Path 7191" d="M224.5,567.4a10.5,10.5,0,1,0,10.5,10.5A10.494,10.494,0,0,0,224.5,567.4Zm0,19.511a8.972,8.972,0,1,1,8.972-8.972A8.977,8.977,0,0,1,224.5,586.911Z" transform="translate(-924.499 1157.501)" fill="#239278"/>
      <path id="Path_7192-3" data-name="Path 7192" d="M229.745,576.6a6.645,6.645,0,1,0,6.645,6.645A6.656,6.656,0,0,0,229.745,576.6Zm0,11.723a5.121,5.121,0,1,1,5.121-5.121A5.139,5.139,0,0,1,229.745,588.323Z" transform="translate(-929.747 1152.195)" fill="#239278"/>
    </g>
    <g id="Group_1982" data-name="Group 1982" transform="translate(2490.206 -1447.1)">
      <path id="Path_7190-4" data-name="Path 7190" d="M215.806,559.6a9.606,9.606,0,1,0,9.606,9.606A9.607,9.607,0,0,0,215.806,559.6Zm0,18.18a8.545,8.545,0,1,1,8.545-8.545A8.551,8.551,0,0,1,215.806,577.78Z" transform="translate(-920 1162)" fill="#fff"/>
      <path id="Path_7191-4" data-name="Path 7191" d="M221.307,567.4a7.307,7.307,0,1,0,7.307,7.307A7.306,7.306,0,0,0,221.307,567.4Zm0,13.584a6.247,6.247,0,1,1,6.247-6.247A6.25,6.25,0,0,1,221.307,580.984Z" transform="translate(-925.502 1156.498)" fill="#fff"/>
      <path id="Path_7192-4" data-name="Path 7192" d="M227.726,576.6a4.626,4.626,0,1,0,4.626,4.626A4.634,4.634,0,0,0,227.726,576.6Zm0,8.162a3.565,3.565,0,1,1,3.565-3.565A3.578,3.578,0,0,1,227.726,584.762Z" transform="translate(-931.92 1150.009)" fill="#fff"/>
    </g>
    <g id="Group_1983" data-name="Group 1983">
      <g id="Group_1750" data-name="Group 1750" transform="translate(68.704 49.704)" opacity="0.6">
        <g id="Ellipse_158" data-name="Ellipse 158" transform="translate(716.296 310.296)" fill="none" stroke="#197761" stroke-width="0.5">
          <circle cx="1.5" cy="1.5" r="1.5" stroke="none"/>
          <circle cx="1.5" cy="1.5" r="1.25" fill="none"/>
        </g>
        <g id="Ellipse_159" data-name="Ellipse 159" transform="translate(717.296 311.296)" fill="none" stroke="#197761" stroke-width="0.5">
          <circle cx="0.5" cy="0.5" r="0.5" stroke="none"/>
          <circle cx="0.5" cy="0.5" r="0.25" fill="none"/>
        </g>
      </g>
      <g id="Group_1747" data-name="Group 1747" transform="translate(95.704 45.704)" opacity="0.6">
        <g id="Ellipse_158-2" data-name="Ellipse 158" transform="translate(716.296 310.296)" fill="none" stroke="#197761" stroke-width="0.5">
          <circle cx="1.5" cy="1.5" r="1.5" stroke="none"/>
          <circle cx="1.5" cy="1.5" r="1.25" fill="none"/>
        </g>
        <g id="Ellipse_159-2" data-name="Ellipse 159" transform="translate(717.296 311.296)" fill="none" stroke="#197761" stroke-width="0.5">
          <circle cx="0.5" cy="0.5" r="0.5" stroke="none"/>
          <circle cx="0.5" cy="0.5" r="0.25" fill="none"/>
        </g>
      </g>
      <g id="Group_1753" data-name="Group 1753" transform="translate(106.704 7.704)" opacity="0.6">
        <g id="Ellipse_158-3" data-name="Ellipse 158" transform="translate(716.296 310.296)" fill="none" stroke="#197761" stroke-width="0.5">
          <circle cx="1.5" cy="1.5" r="1.5" stroke="none"/>
          <circle cx="1.5" cy="1.5" r="1.25" fill="none"/>
        </g>
        <g id="Ellipse_159-3" data-name="Ellipse 159" transform="translate(717.296 311.296)" fill="none" stroke="#197761" stroke-width="0.5">
          <circle cx="0.5" cy="0.5" r="0.5" stroke="none"/>
          <circle cx="0.5" cy="0.5" r="0.25" fill="none"/>
        </g>
      </g>
      <g id="Group_1754" data-name="Group 1754" transform="translate(76.704 -19.296)" opacity="0.6">
        <g id="Ellipse_158-4" data-name="Ellipse 158" transform="translate(716.296 310.296)" fill="none" stroke="#197761" stroke-width="0.5">
          <circle cx="1.5" cy="1.5" r="1.5" stroke="none"/>
          <circle cx="1.5" cy="1.5" r="1.25" fill="none"/>
        </g>
        <g id="Ellipse_159-4" data-name="Ellipse 159" transform="translate(717.296 311.296)" fill="none" stroke="#197761" stroke-width="0.5">
          <circle cx="0.5" cy="0.5" r="0.5" stroke="none"/>
          <circle cx="0.5" cy="0.5" r="0.25" fill="none"/>
        </g>
      </g>
      <g id="Group_1755" data-name="Group 1755" transform="translate(60.704 -16.296)" opacity="0.6">
        <g id="Ellipse_158-5" data-name="Ellipse 158" transform="translate(716.296 310.296)" fill="none" stroke="#197761" stroke-width="0.5">
          <circle cx="1.5" cy="1.5" r="1.5" stroke="none"/>
          <circle cx="1.5" cy="1.5" r="1.25" fill="none"/>
        </g>
        <g id="Ellipse_159-5" data-name="Ellipse 159" transform="translate(717.296 311.296)" fill="none" stroke="#197761" stroke-width="0.5">
          <circle cx="0.5" cy="0.5" r="0.5" stroke="none"/>
          <circle cx="0.5" cy="0.5" r="0.25" fill="none"/>
        </g>
      </g>
      <g id="Group_1756" data-name="Group 1756" transform="translate(43.704 21.704)" opacity="0.6">
        <g id="Ellipse_158-6" data-name="Ellipse 158" transform="translate(716.296 310.296)" fill="none" stroke="#197761" stroke-width="0.5">
          <circle cx="1.5" cy="1.5" r="1.5" stroke="none"/>
          <circle cx="1.5" cy="1.5" r="1.25" fill="none"/>
        </g>
        <g id="Ellipse_159-6" data-name="Ellipse 159" transform="translate(717.296 311.296)" fill="none" stroke="#197761" stroke-width="0.5">
          <circle cx="0.5" cy="0.5" r="0.5" stroke="none"/>
          <circle cx="0.5" cy="0.5" r="0.25" fill="none"/>
        </g>
      </g>
      <g id="Ellipse_153" data-name="Ellipse 153" transform="translate(761.14 243.439)" fill="none" stroke="#239278" stroke-width="2">
        <circle cx="20.238" cy="20.238" r="20.238" stroke="none"/>
        <circle cx="20.238" cy="20.238" r="19.238" fill="none"/>
      </g>
      <g id="Group_1744" data-name="Group 1744" transform="translate(822.317 352.258) rotate(-179)">
        <g id="Ellipse_93-3" data-name="Ellipse 93" transform="matrix(0.966, 0.259, -0.259, 0.966, 15.879, 0)" fill="none" stroke="#1d8068" stroke-width="8">
          <circle cx="18.797" cy="18.797" r="18.797" stroke="none"/>
          <circle cx="18.797" cy="18.797" r="14.797" fill="none"/>
        </g>
        <rect id="Rectangle_944-3" data-name="Rectangle 944" width="43.376" height="18.069" transform="matrix(0.891, 0.454, -0.454, 0.891, 8.203, 14.066)" fill="#4fe3c1"/>
      </g>
      <circle id="Ellipse_154" data-name="Ellipse 154" cx="5" cy="5" r="5" transform="matrix(0.966, -0.259, 0.259, 0.966, 773.264, 256.596)" fill="#239278"/>
      <circle id="Ellipse_160" data-name="Ellipse 160" cx="5" cy="5" r="5" transform="matrix(0.966, -0.259, 0.259, 0.966, 773.264, 256.596)" fill="#239278"/>
      <circle id="Ellipse_155" data-name="Ellipse 155" cx="2.5" cy="2.5" r="2.5" transform="matrix(0.966, -0.259, 0.259, 0.966, 786.029, 265.599)" fill="#239278"/>
      <line id="Line_98" data-name="Line 98" x1="6.746" y1="6.746" transform="matrix(0.966, -0.259, 0.259, 0.966, 768.118, 239.906)" fill="none" stroke="#239278" stroke-linecap="round" stroke-width="0.8"/>
      <line id="Line_99" data-name="Line 99" y1="18.552" x2="1.687" transform="matrix(0.966, -0.259, 0.259, 0.966, 774.837, 225.883)" fill="none" stroke="#239278" stroke-linecap="round" stroke-width="0.8"/>
      <g id="Ellipse_156" data-name="Ellipse 156" transform="matrix(0.966, -0.259, 0.259, 0.966, 735.963, 295.158)" fill="none" stroke="#239278" stroke-width="2">
        <circle cx="46.203" cy="46.203" r="46.203" stroke="none"/>
        <circle cx="46.203" cy="46.203" r="45.203" fill="none"/>
      </g>
      <g id="Ellipse_157" data-name="Ellipse 157" transform="matrix(0.966, -0.259, 0.259, 0.966, 760.787, 308.793)" fill="none" stroke="#239278" stroke-width="2">
        <circle cx="26.754" cy="26.754" r="26.754" stroke="none"/>
        <circle cx="26.754" cy="26.754" r="25.754" fill="none"/>
      </g>
      <path id="Path_7361" data-name="Path 7361" d="M-3926.779,2177.335a101.766,101.766,0,0,1,2.748,24.45c-.286,12.677-1.808,19.264-1.808,19.264s-4.376-8.079-4.852-15.163-.951-15.909.762-22.247c.245-.906.484-1.683.884-2.823C-3927.835,2177.31-3926.779,2177.335-3926.779,2177.335Z" transform="matrix(0.966, -0.259, 0.259, 0.966, 3978.258, -2801.551)" fill="#239278" stroke="#239278" stroke-width="1"/>
      <path id="Path_7362" data-name="Path 7362" d="M-3928.742,2177.335a105.731,105.731,0,0,0-2.377,23.236c.248,12.048,1.564,18.307,1.564,18.307s3.787-7.677,4.2-14.41.823-15.119-.659-21.143c-.212-.861-.418-1.6-.765-2.683C-3927.827,2177.312-3928.742,2177.335-3928.742,2177.335Z" transform="matrix(0.966, -0.259, 0.259, 0.966, 4057.582, -2822.06)" fill="#239278" stroke="#239278" stroke-width="1"/>
      <line id="Line_100" data-name="Line 100" x1="1.687" y2="20.238" transform="matrix(0.966, -0.259, 0.259, 0.966, 783.035, 282.545)" fill="none" stroke="#239278" stroke-width="0.4" opacity="0.5"/>
      <line id="Line_101" data-name="Line 101" x1="1.687" y2="20.238" transform="matrix(0.966, -0.259, 0.259, 0.966, 796.607, 352.749)" fill="none" stroke="#239278" stroke-width="0.4" opacity="0.5"/>
    </g>
    <circle id="Ellipse_174" data-name="Ellipse 174" cx="7" cy="7" r="7" transform="translate(981 564)" fill="#239278" opacity="0.8"/>
    <circle id="Ellipse_176" data-name="Ellipse 176" cx="6" cy="6" r="6" transform="translate(1466 717)" fill="#239278" opacity="0.8"/>
    <circle id="Ellipse_177" data-name="Ellipse 177" cx="6" cy="6" r="6" transform="translate(1466 717)" fill="#239278" opacity="0.8"/>
    <circle id="Ellipse_178" data-name="Ellipse 178" cx="6" cy="6" r="6" transform="translate(809 762)" fill="#239278" opacity="0.8"/>
    <circle id="Ellipse_179" data-name="Ellipse 179" cx="6" cy="6" r="6" transform="translate(1555 197)" fill="#239278" opacity="0.8"/>
    <circle id="Ellipse_180" data-name="Ellipse 180" cx="6" cy="6" r="6" transform="translate(1490 478)" fill="#239278" opacity="0.8"/>
    <circle id="Ellipse_175" data-name="Ellipse 175" cx="7" cy="7" r="7" transform="translate(1077 260)" fill="#fff" opacity="0.8"/>
  </g>
</svg>
