<svg xmlns="http://www.w3.org/2000/svg" width="44.456" height="40.376" viewBox="0 0 44.456 40.376">
  <g id="NewGroupe28" transform="translate(-805.96 -428.19)">
    <g id="NewGroup0-21" transform="translate(805.96 428.19)">
      <g id="Group_1930" data-name="Group 1930">
        <path id="Path_8802" data-name="Path 8802" d="M812.038,453.957a1.985,1.985,0,0,0,.717-.137c.068.2.154.41.222.615a21.815,21.815,0,0,0,1.622,3.414c.256.444.546.888.854,1.315a8.191,8.191,0,0,0-2.458-.376,7.88,7.88,0,0,0-3.09.632l-.461.188.427.273c.154.1,3.841,2.424,6.368,2.424a2.486,2.486,0,0,0,1.622-.5c.154.12.29.256.444.376,0,0,.154.12.222.171.171.137.359.273.529.41h0c.273.188.563.393.768.529h0a16.693,16.693,0,0,0,3.363,1.673l.222.068.256-.512-.188-.137c-.939-.666-1.929-1.383-2.851-2.185-.188-.171-.427-.376-.666-.58l-.649-.615L819,460.7l-.307-.324c-.154-.154-.307-.324-.461-.5-.034-.051-.085-.1-.12-.154-.666-.768-1.3-1.588-1.9-2.424,1.041-.273,2.015-1.451,2.868-3.517a22.035,22.035,0,0,0,1.093-3.432l.1-.478-.461.188a7.836,7.836,0,0,0-3.654,3.022,8.952,8.952,0,0,0-1.11,2.407,15.469,15.469,0,0,1-.785-1.6,24.088,24.088,0,0,1-1.161-3.346,27.125,27.125,0,0,1-.649-3.193,2.305,2.305,0,0,0,.478.068c2.612,0,5.634-5.241,5.771-5.463l.239-.427-.495.051a8.321,8.321,0,0,0-6.232,3.875c-.051-.649-.1-1.3-.12-1.963,0-.188-.017-.393-.017-.58v-.939a8.987,8.987,0,0,0,.751-2.936,8.026,8.026,0,0,0-1.485-5.446l-.29-.41-.171.461c-.068.222-1.827,5.258-.632,7.512a1.925,1.925,0,0,0,1.024.956c-.034.478-.051.922-.068,1.383a33.158,33.158,0,0,0,.085,3.7,31.409,31.409,0,0,0,.529,3.688.063.063,0,0,0,.017.051,8.181,8.181,0,0,0-5.395-2.8l-.5-.051.239.427c.2.188,3.227,5.446,5.839,5.446Z" transform="translate(-805.96 -424.661)" fill="#1A191E"/>
        <path id="Path_8803" data-name="Path 8803" d="M839.334,448.064l-.5.051a8.1,8.1,0,0,0-5.395,2.8.063.063,0,0,1,.017-.051,27.759,27.759,0,0,0,.529-3.688c.085-1.2.12-2.441.085-3.7-.017-.444-.034-.9-.068-1.383a1.924,1.924,0,0,0,1.024-.956c1.2-2.254-.563-7.307-.632-7.512l-.171-.461-.29.41a7.937,7.937,0,0,0-1.485,5.446,8.986,8.986,0,0,0,.751,2.936v.939c0,.188,0,.393-.017.58-.017.666-.068,1.315-.12,1.963a8.241,8.241,0,0,0-6.231-3.875l-.5-.051.239.427c.12.222,3.158,5.463,5.771,5.463a1.473,1.473,0,0,0,.478-.068,25.732,25.732,0,0,1-.649,3.192,22.025,22.025,0,0,1-1.161,3.346,17.338,17.338,0,0,1-.785,1.6,8.954,8.954,0,0,0-1.11-2.407,8.112,8.112,0,0,0-3.654-3.022l-.461-.188.1.478a23.651,23.651,0,0,0,1.093,3.432c.871,2.066,1.827,3.244,2.868,3.517a25.765,25.765,0,0,1-1.9,2.424c-.034.051-.085.1-.12.154a6.338,6.338,0,0,1-.461.5l-.307.324-.307.307-.649.615c-.239.2-.478.41-.666.58-.922.785-1.912,1.519-2.851,2.185l-.188.137.256.512.222-.068a16.683,16.683,0,0,0,3.363-1.673h0c.2-.137.5-.324.768-.529h0c.171-.137.359-.273.529-.41.068-.051.222-.171.222-.171.154-.12.307-.256.444-.376a2.394,2.394,0,0,0,1.622.5c2.527,0,6.214-2.322,6.368-2.424l.427-.273-.461-.188a8.2,8.2,0,0,0-3.09-.632,8.677,8.677,0,0,0-2.458.376c.307-.427.6-.871.854-1.315a24.433,24.433,0,0,0,1.622-3.414c.068-.2.154-.41.222-.615a1.986,1.986,0,0,0,.717.137c2.612,0,5.634-5.241,5.771-5.48l.307-.393Z" transform="translate(-794.878 -424.675)" fill="#1A191E"/>
        <path id="Path_8804" data-name="Path 8804" d="M826.9,454.772a.452.452,0,0,1,.444.444V456.7a.441.441,0,0,1-.444.444h-6.061a.452.452,0,0,1-.444-.444v-1.485a.441.441,0,0,1,.444-.444Zm-8.28-11.2A12.6,12.6,0,0,1,814.9,440.7a7.679,7.679,0,0,1-1.2-5.8,1.8,1.8,0,0,1,.888-1.229c.854-.393,2.476,1.076,3.671,2.544a8.138,8.138,0,0,0,1.076,2.851,6.282,6.282,0,0,0,2.476,2.117l.068.034a.494.494,0,0,0-.427.478v.068a.477.477,0,0,0,.478.478h1.076c-.171,1.332-.376,2.7-.615,4.012a21.494,21.494,0,0,0-3.773-2.68Zm7.188-1.3a.477.477,0,0,0,.478-.478v-.068a.483.483,0,0,0-.444-.478l.068-.034a6.421,6.421,0,0,0,2.475-2.117,8.41,8.41,0,0,0,1.058-2.817c1.2-1.485,2.834-2.971,3.7-2.578a1.756,1.756,0,0,1,.888,1.229,7.755,7.755,0,0,1-1.2,5.8,12.324,12.324,0,0,1-3.722,2.868,20.655,20.655,0,0,0-3.79,2.715c-.239-1.315-.444-2.68-.615-4.012h1.093Zm-5.293,8.963a.648.648,0,0,0-.649.649v1.332h-.359a.747.747,0,0,0-.751.751v3.5a.747.747,0,0,0,.751.751h8.741a.747.747,0,0,0,.751-.751v-3.5a.747.747,0,0,0-.751-.751h-.358v-1.332a.649.649,0,0,0-.649-.649h-.717a23.734,23.734,0,0,1-.819-3.107c.819-1.263,2.527-2.3,4.183-3.312a13.207,13.207,0,0,0,4.166-3.312,9.178,9.178,0,0,0,1.383-7.017,3.184,3.184,0,0,0-1.69-2.134c-1.127-.5-2.476,0-4.029,1.485.017-.717-.017-1.332-.051-1.827a.968.968,0,0,0-.512-1.793H827.89a2.03,2.03,0,0,0-1.81-1.076h-1.3a.561.561,0,0,0,.068-.29.667.667,0,0,0-.666-.666h-.6a.667.667,0,0,0-.666.666.805.805,0,0,0,.068.29h-1.3a2.063,2.063,0,0,0-1.81,1.076h-1.263a.968.968,0,0,0-.512,1.793c-.034.478-.068,1.093-.051,1.793-1.536-1.468-2.885-1.963-4.012-1.468a3.176,3.176,0,0,0-1.69,2.134,9.178,9.178,0,0,0,1.383,7.017A13.21,13.21,0,0,0,817.9,444.8c1.656,1.024,3.363,2.066,4.183,3.312a30.828,30.828,0,0,1-.819,3.107h-.751Z" transform="translate(-801.598 -428.19)" fill="#1A191E"/>
      </g>
    </g>
  </g>
</svg>
