<svg xmlns="http://www.w3.org/2000/svg" width="28.937" height="39.781" viewBox="0 0 28.937 39.781">
  <g id="NewGroupe30" transform="translate(-76.54 -525.99)">
    <g id="NewGroup0-19" transform="translate(76.54 525.99)">
      <g id="Group_1934" data-name="Group 1934">
        <path id="Path_8823" data-name="Path 8823" d="M78.345,529.416a1.606,1.606,0,0,1,1.606-1.606H95.811l7.861,9.743v24.823a1.606,1.606,0,0,1-1.606,1.606H79.951a1.606,1.606,0,0,1-1.606-1.606v-32.96Zm23.86-1.04a1.759,1.759,0,1,1-1.759,1.759,1.759,1.759,0,0,1,1.759-1.759Zm-22.254,37.4h22.116a3.414,3.414,0,0,0,3.411-3.411V529.4a3.414,3.414,0,0,0-3.411-3.411H79.951A3.414,3.414,0,0,0,76.54,529.4v32.96a3.424,3.424,0,0,0,3.411,3.411Z" transform="translate(-76.54 -525.99)" fill="#6F729D"/>
        <path id="Path_8824" data-name="Path 8824" d="M86.281,561.782a.816.816,0,0,0,.811-.811V529.511a.811.811,0,1,0-1.621,0v31.461a.816.816,0,0,0,.811.811Z" transform="translate(-71.812 -524.555)" fill="#6F729D"/>
        <path id="Path_8825" data-name="Path 8825" d="M79.249,537.116l3.319,2.539a.83.83,0,0,0,.52.184.812.812,0,0,0,.673-.336l4.084-5.231a.861.861,0,0,0-1.361-1.055l-3.548,4.558-2.646-2.019a.858.858,0,0,0-1.208.168.842.842,0,0,0,.168,1.193Z" transform="translate(-75.288 -522.342)" fill="#6F729D"/>
        <path id="Path_8826" data-name="Path 8826" d="M79.249,542.5l3.319,2.539a.831.831,0,0,0,.52.184.812.812,0,0,0,.673-.336l4.084-5.231a.861.861,0,0,0-1.361-1.055l-3.548,4.558-2.646-2.019a.858.858,0,0,0-1.208.168.842.842,0,0,0,.168,1.193Z" transform="translate(-75.288 -519.493)" fill="#6F729D"/>
        <path id="Path_8827" data-name="Path 8827" d="M79.249,547.876l3.319,2.539a.831.831,0,0,0,.52.183.812.812,0,0,0,.673-.336l4.084-5.231a.861.861,0,1,0-1.361-1.055l-3.548,4.558-2.646-2.019a.858.858,0,0,0-1.208.168.842.842,0,0,0,.168,1.193Z" transform="translate(-75.288 -516.645)" fill="#6F729D"/>
        <path id="Path_8828" data-name="Path 8828" d="M87.467,537.116l3.319,2.539a.83.83,0,0,0,.52.184.812.812,0,0,0,.673-.336l4.084-5.231a.861.861,0,0,0-1.361-1.055l-3.548,4.558-2.646-2.019a.857.857,0,1,0-1.04,1.361Z" transform="translate(-70.934 -522.342)" fill="#6F729D"/>
        <path id="Path_8829" data-name="Path 8829" d="M93.685,538.453a.855.855,0,0,0-1.208.153l-1.361,1.744-1.361-1.744a.861.861,0,1,0-1.361,1.055l1.621,2.08-1.621,2.08a.855.855,0,0,0,.153,1.208.841.841,0,0,0,.535.184.812.812,0,0,0,.673-.336l1.361-1.744,1.361,1.744a.878.878,0,0,0,.673.336.906.906,0,0,0,.535-.184.857.857,0,0,0,.153-1.208l-1.621-2.08,1.621-2.08a.855.855,0,0,0-.153-1.208Z" transform="translate(-70.361 -519.488)" fill="#6F729D"/>
        <path id="Path_8830" data-name="Path 8830" d="M87.467,547.876l3.319,2.539a.831.831,0,0,0,.52.183.812.812,0,0,0,.673-.336l4.084-5.231a.861.861,0,1,0-1.361-1.055l-3.548,4.558-2.646-2.019a.857.857,0,1,0-1.04,1.361Z" transform="translate(-70.934 -516.645)" fill="#6F729D"/>
      </g>
    </g>
  </g>
</svg>
