<svg xmlns="http://www.w3.org/2000/svg" width="51.804" height="54.53" viewBox="0 0 51.804 54.53">
  <g id="NewGroupe48_1_" transform="translate(-806.64 -625)">
    <g id="NewGroup1-1" transform="translate(806.64 625)">
      <g id="Group_1866" data-name="Group 1866">
        <path id="Path_8306" data-name="Path 8306" d="M825.773,636.476h6.583l-8.386-8.386v6.583a1.79,1.79,0,0,0,1.8,1.8Z" transform="translate(-787.638 -621.612)" fill="#3b4754"/>
        <path id="Path_8307" data-name="Path 8307" d="M834.041,625H808.464a1.825,1.825,0,0,0-1.824,1.824v44.4a1.825,1.825,0,0,0,1.824,1.824h2.369V631.415a1.825,1.825,0,0,1,1.824-1.824h21.384V625Z" transform="translate(-806.64 -625)" fill="#3b4754"/>
        <path id="Path_8308" data-name="Path 8308" d="M820.485,640.564a1.2,1.2,0,0,1-.985,1.866,1.151,1.151,0,0,1-.985-.524L814.342,637l4.172-4.906a1.178,1.178,0,0,1,.985-.524,1.194,1.194,0,0,1,1.195,1.2,1.153,1.153,0,0,1-.21.671L817.194,637l3.291,3.564Zm6.751-7.128a1.2,1.2,0,0,1,.985-1.866,1.151,1.151,0,0,1,.985.524L833.378,637l-4.172,4.906a1.178,1.178,0,0,1-.985.524,1.194,1.194,0,0,1-1.2-1.2,1.153,1.153,0,0,1,.21-.671L830.527,637l-3.291-3.564ZM847.97,674.3v-11.4H830.59a3.7,3.7,0,0,1-3.69-3.69v-9.036a3.7,3.7,0,0,1,3.69-3.69h17.38v-7.547H840a2.877,2.877,0,0,1-2.872-2.872V628.09H811.554a1.825,1.825,0,0,0-1.824,1.824v44.4a1.825,1.825,0,0,0,1.824,1.824h34.613a1.853,1.853,0,0,0,1.8-1.845Z" transform="translate(-803.252 -621.612)" fill="#3b4754"/>
        <path id="Path_8309" data-name="Path 8309" d="M838.065,647.6a3,3,0,0,1-1.761,1.552,3.594,3.594,0,0,1-1.153.189,3.237,3.237,0,0,1-1.279-.252,3.978,3.978,0,0,1-1.048-.629,2.869,2.869,0,0,1-.713-.88,2.1,2.1,0,0,1-.273-.964.9.9,0,0,1,.294-.713.988.988,0,0,1,.671-.252,1.128,1.128,0,0,1,.587.168.974.974,0,0,1,.356.587,1.053,1.053,0,0,0,.482.734,1.777,1.777,0,0,0,.943.273,1.4,1.4,0,0,0,.859-.273,1.014,1.014,0,0,0,.377-.859,1.3,1.3,0,0,0-.21-.776,1.862,1.862,0,0,0-.545-.524,7.921,7.921,0,0,0-.713-.419,5.1,5.1,0,0,1-.734-.419,7.326,7.326,0,0,1-.671-.524,4.489,4.489,0,0,1-.587-.671,3.978,3.978,0,0,1-.419-.776,2.428,2.428,0,0,1-.147-.88,2.523,2.523,0,0,1,.251-1.153,2.3,2.3,0,0,1,.65-.818,3.085,3.085,0,0,1,.88-.5,3.24,3.24,0,0,1,.985-.168,3.349,3.349,0,0,1,.985.168,2.563,2.563,0,0,1,.88.482,2.748,2.748,0,0,1,.629.755,1.892,1.892,0,0,1,.251.964.98.98,0,0,1-.272.713.876.876,0,0,1-.692.293.914.914,0,0,1-.629-.21,1.014,1.014,0,0,1-.315-.671.561.561,0,0,0-.314-.44,1.051,1.051,0,0,0-.524-.147.8.8,0,0,0-.608.21.773.773,0,0,0-.21.5,1.168,1.168,0,0,0,.168.629,1.85,1.85,0,0,0,.461.44,4.165,4.165,0,0,0,.608.335c.21.1.419.21.608.315a6.112,6.112,0,0,1,.839.608,4.505,4.505,0,0,1,.692.734,3.8,3.8,0,0,1,.461.859,3.036,3.036,0,0,1,.168.985,3.515,3.515,0,0,1-.272,1.426Zm-7.149-1.384a3.034,3.034,0,0,1-.252,1.237,3.67,3.67,0,0,1-.671,1.006,3.252,3.252,0,0,1-1.006.671,3.034,3.034,0,0,1-1.237.252,3.136,3.136,0,0,1-1.258-.252,3.084,3.084,0,0,1-1.677-1.677,3.035,3.035,0,0,1-.252-1.237.954.954,0,1,1,1.908,0,1.207,1.207,0,0,0,.377.88,1.186,1.186,0,0,0,.88.356,1.286,1.286,0,0,0,.9-.356,1.186,1.186,0,0,0,.356-.88v-6.31c0-.671.315-1.027.964-1.027.629,0,.943.335.943,1.027v6.31Zm13.46,3.732a1.727,1.727,0,0,0,.692-1.384V639.53a1.736,1.736,0,0,0-1.74-1.74H820.58a1.736,1.736,0,0,0-1.74,1.74v9.036a1.736,1.736,0,0,0,1.74,1.74h22.747a1.627,1.627,0,0,0,1.048-.357Z" transform="translate(-793.263 -610.976)" fill="#3b4754"/>
      </g>
    </g>
  </g>
</svg>
