<svg xmlns="http://www.w3.org/2000/svg" width="45.805" height="50.584" viewBox="0 0 45.805 50.584">
  <g id="file_type_jest_snapshot_icon_130513" transform="translate(-3.323 -2)">
    <path id="Path_9132" data-name="Path 9132" d="M45.742,26.392a4.708,4.708,0,0,0-4.708-4.708c-.168,0-.332.009-.5.025L47.006,2.637H19.525l6.457,19.056c-.094,0-.19-.009-.285-.009a4.71,4.71,0,0,0-1.431,9.2,20.55,20.55,0,0,1-3.7,4.659,18.866,18.866,0,0,1-6.6,4.1,6.005,6.005,0,0,1-3.008-7.642c.139-.325.28-.654.416-.983A4.712,4.712,0,1,0,7.6,30.287a36.276,36.276,0,0,0-3.413,8.65c-.64,3.857,0,7.949,3.333,10.263,7.768,5.385,16.2-3.339,25.1-5.53,3.223-.795,6.76-.667,9.6-2.312a8.027,8.027,0,0,0,3.937-5.579,8.381,8.381,0,0,0-1.5-6.361A4.7,4.7,0,0,0,45.742,26.4Zm-15.336.025V26.4a4.706,4.706,0,0,0-2.269-4.029l5.138-10.408,5.149,10.5a4.7,4.7,0,0,0-2.1,3.918q0,.051,0,.1Z" transform="translate(0.517 0.514)" fill="#3b4754"/>
    <path id="Path_9133" data-name="Path 9133" d="M47.409,26.906a5.868,5.868,0,0,0-4.775-5.756L49.128,2H18.437l6.5,19.188a5.857,5.857,0,0,0-1.816,10.693,19.605,19.605,0,0,1-2.833,3.335,17.77,17.77,0,0,1-5.709,3.667,4.8,4.8,0,0,1-2.049-5.927l.072-.168.134-.316A5.861,5.861,0,1,0,6.707,31.11c-.2.417-.4.84-.612,1.275A25.332,25.332,0,0,0,3.565,39.25c-.84,5.058.515,9.111,3.814,11.4a10.39,10.39,0,0,0,6.081,1.938c3.852,0,7.748-1.935,11.562-3.828a42.7,42.7,0,0,1,8.386-3.463,32.991,32.991,0,0,1,3.252-.576,18.01,18.01,0,0,0,6.646-1.857A9.192,9.192,0,0,0,47.8,36.482a9.494,9.494,0,0,0-1.247-6.527,5.826,5.826,0,0,0,.858-3.05Zm-2.3,0a3.559,3.559,0,1,1-3.559-3.559,3.559,3.559,0,0,1,3.559,3.559ZM45.917,4.3l-5.734,16.91a5.931,5.931,0,0,0-.723.226L33.8,9.873,28.115,21.367a5.919,5.919,0,0,0-.757-.206L21.644,4.3Zm-19.7,19.047a3.559,3.559,0,1,1-3.559,3.559,3.559,3.559,0,0,1,3.559-3.559Zm-15.4.034A3.559,3.559,0,1,1,7.256,26.94a3.559,3.559,0,0,1,3.559-3.559ZM45.532,36.088a6.9,6.9,0,0,1-3.38,4.78A16.042,16.042,0,0,1,36.33,42.44c-1.142.164-2.321.334-3.476.62A44.458,44.458,0,0,0,24,46.7c-5.716,2.838-10.659,5.29-15.305,2.065-3.409-2.363-3.252-6.735-2.854-9.13a23.079,23.079,0,0,1,2.318-6.24c.166-.343.329-.677.488-1.01a5.871,5.871,0,0,0,1.514.379,7.159,7.159,0,0,0,3.794,8.41l.443.228.468-.168a19.912,19.912,0,0,0,7-4.336A21.878,21.878,0,0,0,25.333,32.7,5.855,5.855,0,0,0,30.1,22.537l3.682-7.445L37.5,22.68a5.853,5.853,0,0,0,7.385,9.033,7.14,7.14,0,0,1,.641,4.374Z" transform="translate(0 0)" fill="#fff"/>
  </g>
</svg>
