<svg xmlns="http://www.w3.org/2000/svg" width="101.479" height="62.154" viewBox="0 0 101.479 62.154">
  <path id="brand_node_icon_157859" d="M51.153,65.479a2.1,2.1,0,0,1-.967-.254l-3.044-1.808c-.46-.254-.238-.349-.079-.4a5.56,5.56,0,0,0,1.379-.634.258.258,0,0,1,.222.017l2.347,1.4a.287.287,0,0,0,.285,0l9.165-5.3a.3.3,0,0,0,.143-.254V47.672a.269.269,0,0,0-.143-.254L51.3,42.138a.286.286,0,0,0-.285,0l-9.165,5.28a.29.29,0,0,0-.143.254V58.248a.293.293,0,0,0,.143.238l2.505,1.443c1.364.682,2.2-.127,2.2-.92V48.56a.267.267,0,0,1,.27-.27h1.157a.267.267,0,0,1,.27.27V59.009a2.529,2.529,0,0,1-2.711,2.854,3.93,3.93,0,0,1-2.109-.571l-2.41-1.38a1.958,1.958,0,0,1-.967-1.665V47.672a1.906,1.906,0,0,1,.967-1.665l9.165-5.3a1.966,1.966,0,0,1,1.919,0l9.165,5.3a1.958,1.958,0,0,1,.967,1.665V58.248a1.906,1.906,0,0,1-.967,1.665l-9.165,5.3a1.755,1.755,0,0,1-.951.27Zm7.4-10.434c0-1.982-1.332-2.505-4.154-2.886-2.854-.381-3.14-.571-3.14-1.237,0-.555.238-1.284,2.347-1.284,1.887,0,2.585.412,2.87,1.681a.255.255,0,0,0,.254.206h1.189a.283.283,0,0,0,.19-.076.246.246,0,0,0,.063-.206c-.19-2.188-1.633-3.2-4.567-3.2-2.616,0-4.17,1.11-4.17,2.949,0,2.014,1.554,2.553,4.059,2.806,3,.3,3.235.73,3.235,1.316,0,1.031-.825,1.459-2.759,1.459-2.426,0-2.965-.6-3.14-1.808a.261.261,0,0,0-.27-.222H49.377a.267.267,0,0,0-.27.27c0,1.538.84,3.377,4.852,3.377,2.933,0,4.6-1.142,4.6-3.139ZM67.2,47.1a1.76,1.76,0,1,1-1.76-1.76A1.745,1.745,0,0,1,67.2,47.1Zm-.285,0a1.483,1.483,0,1,0-1.49,1.49A1.51,1.51,0,0,0,66.914,47.1Zm-.714.983h-.412c-.016-.1-.079-.6-.079-.618-.032-.111-.063-.174-.206-.174h-.349v.792h-.381V46.1h.682c.238,0,.7,0,.7.523a.465.465,0,0,1-.381.491c.27.017.285.19.333.444a2.216,2.216,0,0,0,.1.523Zm-.444-1.4c0-.27-.19-.27-.285-.27h-.317v.555h.3a.267.267,0,0,0,.3-.285ZM22.77,24.094a1.154,1.154,0,0,0-.587-1.015l-9.72-5.6a1.263,1.263,0,0,0-.539-.159h-.1a1.161,1.161,0,0,0-.539.159l-9.7,5.6A1.172,1.172,0,0,0,1,24.094l.016,15.063a.605.605,0,0,0,.285.507.559.559,0,0,0,.587,0L7.66,36.351a1.191,1.191,0,0,0,.587-1.015V28.3a1.173,1.173,0,0,1,.587-1.015l2.458-1.411a1.129,1.129,0,0,1,.587-.159,1.113,1.113,0,0,1,.587.159l2.458,1.411a1.173,1.173,0,0,1,.587,1.015v7.04a1.172,1.172,0,0,0,.587,1.015l5.772,3.314a.559.559,0,0,0,.587,0,.586.586,0,0,0,.285-.507l.032-15.063ZM75.92,7.651v27.97a1.173,1.173,0,0,1-.587,1.015l-9.72,5.613a1.189,1.189,0,0,1-1.173,0l-9.72-5.613a1.172,1.172,0,0,1-.587-1.015V24.4a1.173,1.173,0,0,1,.587-1.015l9.72-5.613a1.189,1.189,0,0,1,1.173,0l2.426,1.4a.416.416,0,0,0,.618-.348V3.91A.583.583,0,0,1,69.53,3.4l5.787,3.235a1.149,1.149,0,0,1,.6,1.015ZM68.626,28.09a.3.3,0,0,0-.143-.254L65.154,25.9a.317.317,0,0,0-.3,0l-3.33,1.934a.272.272,0,0,0-.143.254v3.853a.3.3,0,0,0,.143.254l3.33,1.919a.286.286,0,0,0,.285,0l3.33-1.919a.272.272,0,0,0,.143-.254V28.09Zm33.266-.111a1.172,1.172,0,0,0,.587-1.015V24.253a1.173,1.173,0,0,0-.587-1.015l-9.656-5.613a1.189,1.189,0,0,0-1.173,0l-9.72,5.613a1.173,1.173,0,0,0-.587,1.015V35.479a1.154,1.154,0,0,0,.587,1.015L91,42a1.159,1.159,0,0,0,1.157,0l5.835-3.25a.582.582,0,0,0,0-1.015l-9.783-5.613a.586.586,0,0,1-.3-.507V28.09a.586.586,0,0,1,.3-.507l3.044-1.76a.559.559,0,0,1,.587,0l3.044,1.76a.621.621,0,0,1,.3.507v2.759a.6.6,0,0,0,.888.507l5.819-3.377Zm-12.257.555a.246.246,0,0,0-.111.19v2.156a.223.223,0,0,0,.111.19l1.871,1.078a.181.181,0,0,0,.222,0L93.6,31.071a.246.246,0,0,0,.111-.19V28.724a.223.223,0,0,0-.111-.19l-1.871-1.078a.181.181,0,0,0-.222,0Zm-40.306,6.9V24.268a1.2,1.2,0,0,0-.618-1.015l-9.688-5.581a1.189,1.189,0,0,0-1.173,0l-9.688,5.581a1.183,1.183,0,0,0-.618,1.015V35.431a1.223,1.223,0,0,0,.634,1.015l9.7,5.581a1.15,1.15,0,0,0,1.173,0l9.672-5.581A1.179,1.179,0,0,0,49.3,35.7a1.361,1.361,0,0,0,.032-.27Zm-11.781-19.8-.127.076H37.6l-.048-.076ZM49.63,36.272l-.063-.111V36.3l.063-.034Z" transform="translate(-1 -3.325)" fill="#3b4754"/>
</svg>
