<svg xmlns="http://www.w3.org/2000/svg" width="56.866" height="54.53" viewBox="0 0 56.866 54.53">
  <g id="NewGroupe38_1_" transform="translate(-806.02 -526.528)">
    <g id="NewGroup1-11" transform="translate(806.02 526.528)">
      <g id="Group_1846" data-name="Group 1846">
        <path id="Path_8146" data-name="Path 8146" d="M834.409,569.508a1.315,1.315,0,1,1,1.225-1.312,1.316,1.316,0,0,1-1.225,1.312Zm25.327-39.478H845.5a6.691,6.691,0,0,1,2.143,2.887h12.685V565H808.535V532.917H826.82a9.493,9.493,0,0,1,2.472-2.887H809.126a3.1,3.1,0,0,0-3.106,3.106v34.492A3.37,3.37,0,0,0,809.388,571h19.859a1.662,1.662,0,0,1,1.662,1.662v.459h-1.925a2.4,2.4,0,0,0-2.406,2.406V576.9h15.748v-1.378a2.4,2.4,0,0,0-2.406-2.406H838v-.459A1.662,1.662,0,0,1,839.659,571h19.859a3.37,3.37,0,0,0,3.368-3.368V533.136a3.185,3.185,0,0,0-3.15-3.106Z" transform="translate(-806.02 -522.371)" fill="#3b4754"/>
        <path id="Path_8147" data-name="Path 8147" d="M822.989,537.8a.807.807,0,0,0-.809.809v3.434a2.24,2.24,0,0,0,2.231,2.231h6.058a1.627,1.627,0,0,0,1.378.787,1.6,1.6,0,1,0,0-3.193,1.581,1.581,0,0,0-1.378.787h-6.058a.588.588,0,0,1-.591-.591v-3.434a.817.817,0,0,0-.831-.831Z" transform="translate(-786.835 -513.147)" fill="#3b4754"/>
        <path id="Path_8148" data-name="Path 8148" d="M821.587,537.8a.807.807,0,0,0-.809.809v8.421a1.627,1.627,0,0,0-.787,1.378,1.6,1.6,0,0,0,3.193,0,1.581,1.581,0,0,0-.787-1.378v-8.421a.781.781,0,0,0-.809-.809Z" transform="translate(-789.435 -513.147)" fill="#3b4754"/>
        <path id="Path_8149" data-name="Path 8149" d="M819.867,537.8a.807.807,0,0,0-.809.809v8.421a1.627,1.627,0,0,0-.787,1.378,1.6,1.6,0,0,0,3.193,0,1.581,1.581,0,0,0-.787-1.378v-8.421a.794.794,0,0,0-.809-.809Z" transform="translate(-791.477 -513.147)" fill="#3b4754"/>
        <path id="Path_8150" data-name="Path 8150" d="M820.164,538.621v3.434a.588.588,0,0,1-.591.591h-6.058a1.627,1.627,0,0,0-1.378-.787,1.6,1.6,0,0,0,0,3.193,1.58,1.58,0,0,0,1.378-.787h6.058a2.24,2.24,0,0,0,2.231-2.231V538.6a.807.807,0,0,0-.809-.809.845.845,0,0,0-.831.831Z" transform="translate(-800.654 -513.159)" fill="#3b4754"/>
        <path id="Path_8151" data-name="Path 8151" d="M818.017,537.8a.807.807,0,0,0-.809.809v8.421a1.627,1.627,0,0,0-.787,1.378,1.6,1.6,0,0,0,3.193,0,1.581,1.581,0,0,0-.787-1.378v-8.421a.807.807,0,0,0-.809-.809Z" transform="translate(-793.673 -513.147)" fill="#3b4754"/>
        <path id="Path_8152" data-name="Path 8152" d="M836.639,530.84a3.558,3.558,0,0,1-1.028,1.772l-7.721,7.305a2.6,2.6,0,0,1-1.75.7h0a2.531,2.531,0,0,1-1.837-.787,2.57,2.57,0,0,1-.262-3.172l1.969-2.887a3.672,3.672,0,0,1-3.5-2.887A7.754,7.754,0,0,0,820.1,534.6a5.457,5.457,0,0,0-1.99-.372,5.534,5.534,0,0,0,0,11.067h16.994a5.529,5.529,0,0,0,2.975-10.192,3.829,3.829,0,0,0,.087-.875,4.358,4.358,0,0,0-1.531-3.39Z" transform="translate(-798.232 -521.409)" fill="#3b4754"/>
        <path id="Path_8153" data-name="Path 8153" d="M825.707,526.838a1.62,1.62,0,0,0-2.275.372l-5.1,7.021a1.58,1.58,0,0,0-.306.962,1.638,1.638,0,0,0,1.64,1.64h3.784l-4.156,6.08a.494.494,0,0,0,.044.612.509.509,0,0,0,.7.022l7.721-7.305a1.562,1.562,0,0,0-1.072-2.69h-3.828l3.215-4.44a1.66,1.66,0,0,0-.372-2.275Z" transform="translate(-791.762 -526.528)" fill="#3b4754"/>
      </g>
    </g>
  </g>
</svg>
