<svg xmlns="http://www.w3.org/2000/svg" width="56.53" height="49.466" viewBox="0 0 56.53 49.466">
  <path id="react_icon_196203" d="M46.173,48.043q-.894-.3-1.789-.563c.1-.409.188-.817.276-1.226,1.358-6.58.464-11.869-2.55-13.613-2.9-1.667-7.64.066-12.432,4.24-.475.409-.938.839-1.38,1.27-.3-.287-.607-.574-.916-.85-5.024-4.461-10.058-6.337-13.072-4.582C11.416,34.4,10.555,39.375,11.77,45.6c.121.618.254,1.226.409,1.844-.707.2-1.4.42-2.054.651C4.229,50.14,0,53.364,0,56.7c0,3.445,4.5,6.9,10.632,9,.5.166.994.331,1.5.475-.166.662-.309,1.314-.442,1.987-1.159,6.128-.254,10.986,2.639,12.653,2.981,1.722,7.994-.044,12.874-4.317.386-.342.773-.7,1.159-1.071.486.475.994.927,1.5,1.369,4.726,4.063,9.4,5.708,12.278,4.041,2.981-1.722,3.953-6.945,2.694-13.3q-.149-.729-.331-1.491c.353-.1.7-.21,1.038-.32C51.914,63.61,56.53,60.2,56.53,56.7c0-3.345-4.35-6.591-10.356-8.656ZM31.235,38.669c4.107-3.577,7.938-4.979,9.683-3.975,1.866,1.071,2.584,5.4,1.413,11.085-.077.375-.155.74-.254,1.1a56.522,56.522,0,0,0-7.431-1.17,55.784,55.784,0,0,0-4.7-5.863C30.374,39.442,30.793,39.055,31.235,38.669ZM18.46,62.429c.563.961,1.137,1.921,1.744,2.86a50,50,0,0,1-5.123-.828,51.576,51.576,0,0,1,1.8-4.913c.508.972,1.027,1.932,1.579,2.882ZM15.115,49.147c1.59-.353,3.279-.64,5.035-.861-.585.916-1.159,1.855-1.7,2.8s-1.071,1.9-1.568,2.871c-.7-1.645-1.281-3.257-1.767-4.814Zm3.025,7.607c.729-1.524,1.524-3.014,2.363-4.483s1.744-2.893,2.694-4.295c1.656-.121,3.345-.188,5.068-.188s3.423.066,5.068.188q1.408,2.087,2.683,4.273t2.4,4.461Q37.3,59,36.027,61.214c-.839,1.468-1.733,2.893-2.672,4.306-1.645.121-3.356.177-5.09.177s-3.412-.055-5.035-.155q-1.441-2.1-2.716-4.306c-.85-1.468-1.634-2.959-2.374-4.483Zm19.94,5.653c.563-.972,1.093-1.954,1.612-2.948a51.253,51.253,0,0,1,1.866,4.891,48.5,48.5,0,0,1-5.189.883c.6-.927,1.159-1.877,1.711-2.826Zm1.59-8.446c-.519-.972-1.049-1.943-1.6-2.893s-1.1-1.866-1.689-2.782a50.808,50.808,0,0,1,5.068.883A48.863,48.863,0,0,1,39.67,53.96ZM28.287,41.539a48.483,48.483,0,0,1,3.268,3.953c-2.186-.1-4.383-.1-6.569,0C26.068,44.068,27.183,42.743,28.287,41.539ZM15.479,34.771c1.855-1.082,5.973.464,10.312,4.306.276.243.552.508.839.773a56.094,56.094,0,0,0-4.737,5.863,58.2,58.2,0,0,0-7.42,1.148c-.144-.563-.265-1.137-.386-1.711-1.038-5.344-.353-9.374,1.391-10.378Zm-2.705,29.1c-.464-.132-.916-.276-1.369-.431A22.518,22.518,0,0,1,4.449,60a4.954,4.954,0,0,1-2.076-3.3c0-2.02,3.489-4.6,8.524-6.36.629-.221,1.27-.42,1.91-.607a58.71,58.71,0,0,0,2.705,7.022A60.352,60.352,0,0,0,12.774,63.875ZM25.648,74.7a20.208,20.208,0,0,1-6.227,3.9,4.887,4.887,0,0,1-3.9.144c-1.756-1.016-2.484-4.913-1.491-10.158.121-.618.254-1.237.409-1.844a55.234,55.234,0,0,0,7.5,1.082,58.265,58.265,0,0,0,4.77,5.9c-.353.342-.707.674-1.06.983Zm2.705-2.683C27.227,70.8,26.1,69.451,25.008,68c1.06.044,2.153.066,3.257.066,1.137,0,2.252-.022,3.356-.077A47.614,47.614,0,0,1,28.353,72.012Zm14.431,3.312a4.907,4.907,0,0,1-1.822,3.456c-1.756,1.016-5.5-.309-9.539-3.776-.464-.4-.927-.828-1.4-1.27a54.619,54.619,0,0,0,4.659-5.918,54.426,54.426,0,0,0,7.53-1.159c.11.453.21.905.3,1.347A20.127,20.127,0,0,1,42.784,75.325Zm2.009-11.869c-.309.1-.618.2-.938.287A56.088,56.088,0,0,0,41.039,56.7a55.807,55.807,0,0,0,2.705-6.945c.574.166,1.126.342,1.656.519,5.145,1.767,8.755,4.394,8.755,6.4C54.156,58.841,50.3,61.634,44.793,63.456ZM28.265,61.8a5.057,5.057,0,1,0-5.057-5.057A5.056,5.056,0,0,0,28.265,61.8Z" transform="translate(0 -32.012)" fill="#3b4754"/>
</svg>
