<svg xmlns="http://www.w3.org/2000/svg" width="63.715" height="54.53" viewBox="0 0 63.715 54.53">
  <g id="redis_original_logo_icon_146368" transform="translate(-1.199 -10.293)" opacity="0.9">
    <path id="Path_9123" data-name="Path 9123" d="M62.464,78.078c-3.4,1.777-21.014,8.984-24.77,10.964s-5.837,1.929-8.781.508S7.239,80.616,3.838,78.992C2.163,78.18,1.3,77.52,1.3,76.86V70.414s24.364-5.33,28.323-6.7c3.959-1.421,5.279-1.472,8.629-.254s23.4,4.822,26.7,6.04v6.345c0,.66-.761,1.37-2.487,2.233Z" transform="translate(-0.05 -25.753)" fill="#2e3946"/>
    <path id="Path_9124" data-name="Path 9124" d="M62.432,66.66c-3.4,1.777-21.014,8.984-24.77,10.964s-5.837,1.929-8.781.508S7.207,69.147,3.806,67.523C.456,65.9.355,64.782,3.654,63.513c3.3-1.32,21.928-8.629,25.887-10,3.959-1.421,5.279-1.472,8.629-.254s20.862,8.172,24.161,9.39c3.4,1.218,3.5,2.233.1,4.01Z" transform="translate(-0.018 -20.731)" fill="#3b4754"/>
    <path id="Path_9125" data-name="Path 9125" d="M62.464,57.429c-3.4,1.777-21.014,8.984-24.77,10.964-3.756,1.929-5.837,1.929-8.781.508S7.239,59.916,3.838,58.292C2.163,57.48,1.3,56.82,1.3,56.16V49.714s24.364-5.33,28.323-6.7c3.959-1.421,5.279-1.472,8.629-.254s23.4,4.822,26.7,6.04v6.345c0,.66-.761,1.37-2.487,2.284Z" transform="translate(-0.05 -15.56)" fill="#2e3946"/>
    <path id="Path_9126" data-name="Path 9126" d="M62.414,45.96c-3.4,1.777-21.014,8.984-24.77,10.964-3.756,1.929-5.837,1.929-8.781.508S7.189,48.447,3.788,46.823s-3.452-2.741-.152-4.01c3.3-1.32,21.928-8.629,25.887-10,3.959-1.421,5.279-1.472,8.629-.254s20.862,8.172,24.161,9.39c3.4,1.218,3.5,2.233.1,4.01Z" transform="translate(0 -10.538)" fill="#3b4754"/>
    <path id="Path_9127" data-name="Path 9127" d="M62.414,35.978c-3.4,1.777-21.014,8.984-24.77,10.964-3.756,1.929-5.837,1.929-8.781.508-2.944-1.37-21.674-8.933-25.075-10.558C2.114,36.08,1.2,35.42,1.2,34.76V28.314s24.364-5.33,28.323-6.7c3.959-1.421,5.279-1.472,8.629-.254s23.4,4.822,26.7,6.04v6.345c.051.66-.711,1.32-2.436,2.233Z" transform="translate(-0.001 -5.023)" fill="#2e3946"/>
    <path id="Path_9128" data-name="Path 9128" d="M62.414,24.509c-3.4,1.777-21.014,8.984-24.77,10.964-3.756,1.929-5.837,1.929-8.781.508S7.189,27.047,3.788,25.423s-3.452-2.741-.152-4.01c3.3-1.32,21.928-8.629,25.887-10,3.959-1.421,5.279-1.472,8.629-.254s20.862,8.172,24.161,9.39c3.4,1.218,3.5,2.233.1,3.959Z" transform="translate(0)" fill="#3b4754"/>
    <path id="Path_9129" data-name="Path 9129" d="M63.559,21.57l-5.482.609-1.269,2.944-1.98-3.3-6.345-.558L53.2,19.539,51.783,16.9l4.467,1.726,4.162-1.37L59.3,20ZM56.5,35.985,46.2,31.721l14.771-2.233Z" transform="translate(-22.159 -3.253)" fill="#fff"/>
    <ellipse id="Ellipse_173" data-name="Ellipse 173" cx="7.868" cy="3.045" rx="7.868" ry="3.045" transform="translate(12.214 19.992)" fill="#fff"/>
    <path id="Path_9130" data-name="Path 9130" d="M93.3,27.7l8.73,3.452L93.3,34.6Z" transform="translate(-45.352 -8.571)" fill="#1a242f"/>
    <path id="Path_9131" data-name="Path 9131" d="M74.3,31.558,83.944,27.7v6.9l-.964.406Z" transform="translate(-35.996 -8.571)" fill="#2e3946"/>
  </g>
</svg>
