<svg xmlns="http://www.w3.org/2000/svg" width="53.753" height="44.615" viewBox="0 0 53.753 44.615">
  <g id="NewGroupe43_1_" transform="translate(-430 -592.21)">
    <g id="NewGroup1-6" transform="translate(430 592.21)">
      <g id="Group_1856" data-name="Group 1856">
        <path id="Path_8218" data-name="Path 8218" d="M348,635.472c0,2.626,9.427,4.734,21.046,4.734s21.046-2.13,21.046-4.734V630.82c-1.468,1.075-3.969,1.923-7.525,2.564a85.563,85.563,0,0,1-27.042,0c-3.556-.641-6.058-1.489-7.525-2.564v4.652Z" transform="translate(-348 -623.356)" fill="#3b4754"/>
        <path id="Path_8219" data-name="Path 8219" d="M348,639.292c0,2.626,9.427,4.734,21.046,4.734,1.53,0,3.018-.041,4.445-.1a15.685,15.685,0,0,1,4.631-6.1,89.408,89.408,0,0,1-9.076.455,77.923,77.923,0,0,1-13.521-1.075c-3.556-.641-6.058-1.489-7.525-2.564v4.652Z" transform="translate(-348 -619.279)" fill="#3b4754"/>
        <path id="Path_8220" data-name="Path 8220" d="M348,643.132c0,2.626,9.427,4.734,21.046,4.734,1.137,0,2.233-.021,3.308-.062a17.94,17.94,0,0,1-.1-1.84,15.383,15.383,0,0,1,.5-3.928c-1.22.041-2.44.062-3.7.062a77.923,77.923,0,0,1-13.521-1.075c-3.556-.641-6.058-1.489-7.525-2.564v4.672Z" transform="translate(-348 -615.201)" fill="#3b4754"/>
        <path id="Path_8221" data-name="Path 8221" d="M369.046,636.679a76.029,76.029,0,0,0,13.232-1.054c4.776-.868,7.815-2.192,7.815-3.68,0-2.626-9.427-4.734-21.046-4.734S348,629.339,348,631.944c0,1.488,3.06,2.812,7.815,3.68a75.854,75.854,0,0,0,13.232,1.054Z" transform="translate(-348 -627.21)" fill="#3b4754"/>
        <path id="Path_8222" data-name="Path 8222" d="M371.231,641.46a3.209,3.209,0,0,0-.992-.661,3.009,3.009,0,0,0-3.391.682,3.23,3.23,0,0,0-.868,2.212,3.258,3.258,0,0,0,.227,1.2,3.177,3.177,0,0,0,.641.972,3.067,3.067,0,0,0,2.191.91,5.459,5.459,0,0,0,.579-.041,2.036,2.036,0,0,0,.579-.165l-.393-.372a1.241,1.241,0,0,1-.227-.289.691.691,0,0,1-.062-.31.86.86,0,0,1,.269-.641.9.9,0,0,1,.662-.269.89.89,0,0,1,.289.083.9.9,0,0,1,.31.207l.476.517a3.084,3.084,0,0,0,.351-3.039,2.748,2.748,0,0,0-.641-.992Z" transform="translate(-328.807 -612.97)" fill="#3b4754"/>
        <path id="Path_8223" data-name="Path 8223" d="M380.737,653.542a.842.842,0,0,1-.248-.62v-7.546a.858.858,0,1,1,1.716,0v6.657h2.5a.848.848,0,0,1,.868.868.8.8,0,0,1-.248.6.841.841,0,0,1-.62.248h-3.37a.662.662,0,0,1-.6-.207Zm-1.365-2.708a4.657,4.657,0,0,1-.827,1.406l.476.475a.809.809,0,0,1,.207.331c.021.1.041.207.062.29a.8.8,0,0,1-.269.6.9.9,0,0,1-.62.269.782.782,0,0,1-.579-.248l-.579-.558a6.205,6.205,0,0,1-1.137.455,4.315,4.315,0,0,1-1.261.165,4.949,4.949,0,0,1-1.9-.372,4.689,4.689,0,0,1-1.551-1.013,5.312,5.312,0,0,1-1.054-1.53,4.788,4.788,0,0,1-.393-1.881,4.674,4.674,0,0,1,.372-1.861,4.911,4.911,0,0,1,1.013-1.551,4.994,4.994,0,0,1,1.53-1.075,4.477,4.477,0,0,1,1.9-.393,4.666,4.666,0,0,1,1.943.393,4.776,4.776,0,0,1,1.571,1.054,4.749,4.749,0,0,1,1.406,3.411,5.87,5.87,0,0,1-.31,1.633Zm-10.42,1.551a2.553,2.553,0,0,1-.662.868,2.663,2.663,0,0,1-.91.517,3.491,3.491,0,0,1-1.034.165,3.121,3.121,0,0,1-1.158-.227,2.931,2.931,0,0,1-.951-.579,2.554,2.554,0,0,1-.641-.786,1.737,1.737,0,0,1-.248-.868.747.747,0,0,1,.269-.641.9.9,0,0,1,.6-.227,1.025,1.025,0,0,1,.538.166.742.742,0,0,1,.31.517.912.912,0,0,0,.434.662,1.528,1.528,0,0,0,.868.248,1.254,1.254,0,0,0,.765-.248.921.921,0,0,0,.352-.786,1.226,1.226,0,0,0-.186-.7,1.822,1.822,0,0,0-.5-.475,3.977,3.977,0,0,0-.641-.372,4.157,4.157,0,0,1-.662-.372,4.328,4.328,0,0,1-.6-.475,3.6,3.6,0,0,1-.517-.6,2.562,2.562,0,0,1-.372-.7,2.516,2.516,0,0,1-.145-.786,2.309,2.309,0,0,1,.227-1.034,2.575,2.575,0,0,1,.579-.744,2.392,2.392,0,0,1,.806-.455,2.668,2.668,0,0,1,.889-.145,2.755,2.755,0,0,1,.889.145,2.488,2.488,0,0,1,1.365,1.116,1.813,1.813,0,0,1,.227.868.89.89,0,0,1-.248.641.786.786,0,0,1-.62.269.924.924,0,0,1-.579-.186.8.8,0,0,1-.269-.62.486.486,0,0,0-.269-.393,1.087,1.087,0,0,0-.476-.124.677.677,0,0,0-.538.186.608.608,0,0,0-.186.455.942.942,0,0,0,.165.558,1.506,1.506,0,0,0,.414.393c.165.1.352.207.538.31a4.438,4.438,0,0,1,.538.289,5.184,5.184,0,0,1,.765.558,3.688,3.688,0,0,1,.62.662,3.557,3.557,0,0,1,.414.786,2.508,2.508,0,0,1,.145.889,3.649,3.649,0,0,1-.31,1.281Zm19.351-3.142a13.852,13.852,0,1,0-13.852,13.852A13.853,13.853,0,0,0,388.3,649.242Z" transform="translate(-334.55 -618.478)" fill="#3b4754"/>
      </g>
    </g>
  </g>
</svg>
